<?xml version="1.0" encoding="UTF-8" standalone="no"?>
<!DOCTYPE svg PUBLIC "-//W3C//DTD SVG 1.1//EN"
 "http://www.w3.org/Graphics/SVG/1.1/DTD/svg11.dtd">
<!-- Generated by graphviz version 2.40.1 (20161225.0304)
 -->
<!-- Title: perceptron Pages: 1 -->
<svg width="588pt" height="289pt"
 viewBox="0.00 0.00 588.00 289.00" xmlns="http://www.w3.org/2000/svg" xmlns:xlink="http://www.w3.org/1999/xlink">
<g id="graph0" class="graph" transform="scale(1 1) rotate(0) translate(4 285)">
<title>perceptron</title>
<polygon fill="#ffffff" stroke="transparent" points="-4,4 -4,-285 584,-285 584,4 -4,4"/>
<!-- in_0 -->
<g id="node1" class="node">
<title>in_0</title>
<ellipse fill="none" stroke="#000000" cx="209" cy="-7" rx="7" ry="7"/>
</g>
<!-- h_0 -->
<g id="node9" class="node">
<title>h_0</title>
<ellipse fill="none" stroke="#000000" cx="259" cy="-97" rx="11" ry="11"/>
</g>
<!-- in_0&#45;&gt;h_0 -->
<g id="edge1" class="edge">
<title>in_0&#45;&gt;h_0</title>
<path fill="none" stroke="#000000" d="M212.4367,-13.1861C219.7934,-26.4282 237.3165,-57.9698 248.6443,-78.3597"/>
<polygon fill="#000000" stroke="#000000" points="245.7197,-80.3026 253.6358,-87.3444 251.8389,-76.9031 245.7197,-80.3026"/>
</g>
<!-- h_1 -->
<g id="node10" class="node">
<title>h_1</title>
<ellipse fill="none" stroke="#000000" cx="321" cy="-97" rx="11" ry="11"/>
</g>
<!-- in_0&#45;&gt;h_1 -->
<g id="edge2" class="edge">
<title>in_0&#45;&gt;h_1</title>
<path fill="none" stroke="#000000" d="M214.7081,-11.5868C231.057,-24.7244 278.5242,-62.8677 304.1392,-83.4511"/>
<polygon fill="#000000" stroke="#000000" points="302.2138,-86.394 312.2013,-89.9296 306.5986,-80.9374 302.2138,-86.394"/>
</g>
<!-- h_2 -->
<g id="node11" class="node">
<title>h_2</title>
<ellipse fill="none" stroke="#000000" cx="383" cy="-97" rx="11" ry="11"/>
</g>
<!-- in_0&#45;&gt;h_2 -->
<g id="edge3" class="edge">
<title>in_0&#45;&gt;h_2</title>
<path fill="none" stroke="#000000" d="M215.6085,-10.4182C239.9978,-23.0334 325.5243,-67.2712 363.9974,-87.1711"/>
<polygon fill="#000000" stroke="#000000" points="362.6168,-90.3974 373.107,-91.8829 365.8328,-84.1799 362.6168,-90.3974"/>
</g>
<!-- h_3 -->
<g id="node12" class="node">
<title>h_3</title>
<ellipse fill="none" stroke="#000000" cx="445" cy="-97" rx="11" ry="11"/>
</g>
<!-- in_0&#45;&gt;h_3 -->
<g id="edge4" class="edge">
<title>in_0&#45;&gt;h_3</title>
<path fill="none" stroke="#000000" d="M215.8085,-9.5965C246.7886,-21.4109 375.0748,-70.3336 424.9965,-89.3716"/>
<polygon fill="#000000" stroke="#000000" points="424.0597,-92.7601 434.6505,-93.0531 426.554,-86.2196 424.0597,-92.7601"/>
</g>
<!-- h_4 -->
<g id="node13" class="node">
<title>h_4</title>
<ellipse fill="none" stroke="#000000" cx="507" cy="-97" rx="11" ry="11"/>
</g>
<!-- in_0&#45;&gt;h_4 -->
<g id="edge5" class="edge">
<title>in_0&#45;&gt;h_4</title>
<path fill="none" stroke="#000000" d="M215.7841,-9.0489C252.3226,-20.084 426.2646,-72.6168 486.4507,-90.7938"/>
<polygon fill="#000000" stroke="#000000" points="485.7213,-94.2296 496.3062,-93.7703 487.7451,-87.5286 485.7213,-94.2296"/>
</g>
<!-- h_5 -->
<g id="node14" class="node">
<title>h_5</title>
<ellipse fill="none" stroke="#000000" cx="569" cy="-97" rx="11" ry="11"/>
</g>
<!-- in_0&#45;&gt;h_5 -->
<g id="edge6" class="edge">
<title>in_0&#45;&gt;h_5</title>
<path fill="none" stroke="#000000" d="M215.87,-8.7175C257.7609,-19.1902 479.3057,-74.5764 548.4013,-91.8503"/>
<polygon fill="#000000" stroke="#000000" points="547.5806,-95.2528 558.1309,-94.2827 549.2784,-88.4618 547.5806,-95.2528"/>
</g>
<!-- h_6 -->
<g id="node15" class="node">
<title>h_6</title>
<ellipse fill="none" stroke="#000000" cx="11" cy="-97" rx="11" ry="11"/>
</g>
<!-- in_0&#45;&gt;h_6 -->
<g id="edge7" class="edge">
<title>in_0&#45;&gt;h_6</title>
<path fill="none" stroke="#000000" d="M202.4122,-9.9945C175.5757,-22.1929 73.8725,-68.4216 30.6381,-88.0736"/>
<polygon fill="#000000" stroke="#000000" points="29.0913,-84.932 21.436,-92.2564 31.988,-91.3046 29.0913,-84.932"/>
</g>
<!-- h_7 -->
<g id="node16" class="node">
<title>h_7</title>
<ellipse fill="none" stroke="#000000" cx="73" cy="-97" rx="11" ry="11"/>
</g>
<!-- in_0&#45;&gt;h_7 -->
<g id="edge8" class="edge">
<title>in_0&#45;&gt;h_7</title>
<path fill="none" stroke="#000000" d="M203.1563,-10.8672C183.8966,-23.6126 121.888,-64.6477 90.9304,-85.1343"/>
<polygon fill="#000000" stroke="#000000" points="88.8093,-82.3409 82.4015,-90.7784 92.6724,-88.1785 88.8093,-82.3409"/>
</g>
<!-- h_8 -->
<g id="node17" class="node">
<title>h_8</title>
<ellipse fill="none" stroke="#000000" cx="135" cy="-97" rx="11" ry="11"/>
</g>
<!-- in_0&#45;&gt;h_8 -->
<g id="edge9" class="edge">
<title>in_0&#45;&gt;h_8</title>
<path fill="none" stroke="#000000" d="M204.371,-12.6299C193.4072,-25.9642 165.5111,-59.8919 148.6222,-80.4324"/>
<polygon fill="#000000" stroke="#000000" points="145.7871,-78.3696 142.1395,-88.3168 151.1941,-82.8154 145.7871,-78.3696"/>
</g>
<!-- h_9 -->
<g id="node18" class="node">
<title>h_9</title>
<ellipse fill="none" stroke="#000000" cx="197" cy="-97" rx="11" ry="11"/>
</g>
<!-- in_0&#45;&gt;h_9 -->
<g id="edge10" class="edge">
<title>in_0&#45;&gt;h_9</title>
<path fill="none" stroke="#000000" d="M208.0584,-14.0621C206.3055,-27.2086 202.4792,-55.9064 199.8219,-75.8359"/>
<polygon fill="#000000" stroke="#000000" points="196.3389,-75.4765 198.4865,-85.8514 203.2775,-76.4017 196.3389,-75.4765"/>
</g>
<!-- in_1 -->
<g id="node2" class="node">
<title>in_1</title>
<ellipse fill="none" stroke="#000000" cx="263" cy="-7" rx="7" ry="7"/>
</g>
<!-- in_1&#45;&gt;h_0 -->
<g id="edge11" class="edge">
<title>in_1&#45;&gt;h_0</title>
<path fill="none" stroke="#000000" d="M262.6861,-14.0621C262.1018,-27.2086 260.8264,-55.9064 259.9406,-75.8359"/>
<polygon fill="#000000" stroke="#000000" points="256.443,-75.7058 259.4955,-85.8514 263.4361,-76.0167 256.443,-75.7058"/>
</g>
<!-- in_1&#45;&gt;h_1 -->
<g id="edge12" class="edge">
<title>in_1&#45;&gt;h_1</title>
<path fill="none" stroke="#000000" d="M266.8055,-12.9052C275.3289,-26.1311 296.2387,-58.5773 309.4521,-79.0809"/>
<polygon fill="#000000" stroke="#000000" points="306.5504,-81.0394 314.9094,-87.5491 312.4344,-77.2474 306.5504,-81.0394"/>
</g>
<!-- in_1&#45;&gt;h_2 -->
<g id="edge13" class="edge">
<title>in_1&#45;&gt;h_2</title>
<path fill="none" stroke="#000000" d="M268.7878,-11.3409C286.2017,-24.4013 338.5908,-63.6931 365.9479,-84.2109"/>
<polygon fill="#000000" stroke="#000000" points="364.0791,-87.1843 374.1792,-90.3844 368.2791,-81.5843 364.0791,-87.1843"/>
</g>
<!-- in_1&#45;&gt;h_3 -->
<g id="edge14" class="edge">
<title>in_1&#45;&gt;h_3</title>
<path fill="none" stroke="#000000" d="M269.4775,-10.2031C294.5791,-22.616 386.0259,-67.837 426.0382,-87.6233"/>
<polygon fill="#000000" stroke="#000000" points="424.5155,-90.7748 435.0309,-92.0702 427.6185,-84.5001 424.5155,-90.7748"/>
</g>
<!-- in_1&#45;&gt;h_4 -->
<g id="edge15" class="edge">
<title>in_1&#45;&gt;h_4</title>
<path fill="none" stroke="#000000" d="M269.7806,-9.501C301.4696,-21.1896 435.5866,-70.659 486.9097,-89.5897"/>
<polygon fill="#000000" stroke="#000000" points="485.9449,-92.9642 496.5382,-93.1411 488.3673,-86.3967 485.9449,-92.9642"/>
</g>
<!-- in_1&#45;&gt;h_5 -->
<g id="edge16" class="edge">
<title>in_1&#45;&gt;h_5</title>
<path fill="none" stroke="#000000" d="M269.9662,-9.0489C307.6474,-20.1316 487.64,-73.0706 548.6919,-91.027"/>
<polygon fill="#000000" stroke="#000000" points="547.7646,-94.4025 558.3459,-93.8664 549.7399,-87.6869 547.7646,-94.4025"/>
</g>
<!-- in_1&#45;&gt;h_6 -->
<g id="edge17" class="edge">
<title>in_1&#45;&gt;h_6</title>
<path fill="none" stroke="#000000" d="M256.2596,-9.4073C223.8934,-20.9667 83.8291,-70.9896 31.1413,-89.8067"/>
<polygon fill="#000000" stroke="#000000" points="29.7999,-86.5692 21.5596,-93.2287 32.1543,-93.1614 29.7999,-86.5692"/>
</g>
<!-- in_1&#45;&gt;h_7 -->
<g id="edge18" class="edge">
<title>in_1&#45;&gt;h_7</title>
<path fill="none" stroke="#000000" d="M256.2378,-10.2031C229.9773,-22.6423 134.1615,-68.0287 92.5306,-87.7487"/>
<polygon fill="#000000" stroke="#000000" points="90.9464,-84.6262 83.4073,-92.0702 93.943,-90.9524 90.9464,-84.6262"/>
</g>
<!-- in_1&#45;&gt;h_8 -->
<g id="edge19" class="edge">
<title>in_1&#45;&gt;h_8</title>
<path fill="none" stroke="#000000" d="M257.1675,-11.101C238.8089,-24.0094 181.7028,-64.1621 152.533,-84.6721"/>
<polygon fill="#000000" stroke="#000000" points="150.2956,-81.9666 144.1284,-90.5816 154.3219,-87.6929 150.2956,-81.9666"/>
</g>
<!-- in_1&#45;&gt;h_9 -->
<g id="edge20" class="edge">
<title>in_1&#45;&gt;h_9</title>
<path fill="none" stroke="#000000" d="M258.6696,-12.9052C248.8269,-26.327 224.4689,-59.5424 209.4786,-79.9837"/>
<polygon fill="#000000" stroke="#000000" points="206.6078,-77.98 203.5165,-88.1138 212.2526,-82.1195 206.6078,-77.98"/>
</g>
<!-- in_2 -->
<g id="node3" class="node">
<title>in_2</title>
<ellipse fill="none" stroke="#000000" cx="317" cy="-7" rx="7" ry="7"/>
</g>
<!-- in_2&#45;&gt;h_0 -->
<g id="edge21" class="edge">
<title>in_2&#45;&gt;h_0</title>
<path fill="none" stroke="#000000" d="M313.1945,-12.9052C304.6711,-26.1311 283.7613,-58.5773 270.5479,-79.0809"/>
<polygon fill="#000000" stroke="#000000" points="267.5656,-77.2474 265.0906,-87.5491 273.4496,-81.0394 267.5656,-77.2474"/>
</g>
<!-- in_2&#45;&gt;h_1 -->
<g id="edge22" class="edge">
<title>in_2&#45;&gt;h_1</title>
<path fill="none" stroke="#000000" d="M317.3139,-14.0621C317.8982,-27.2086 319.1736,-55.9064 320.0594,-75.8359"/>
<polygon fill="#000000" stroke="#000000" points="316.5639,-76.0167 320.5045,-85.8514 323.557,-75.7058 316.5639,-76.0167"/>
</g>
<!-- in_2&#45;&gt;h_2 -->
<g id="edge23" class="edge">
<title>in_2&#45;&gt;h_2</title>
<path fill="none" stroke="#000000" d="M321.3304,-12.9052C331.1731,-26.327 355.5311,-59.5424 370.5214,-79.9837"/>
<polygon fill="#000000" stroke="#000000" points="367.7474,-82.1195 376.4835,-88.1138 373.3922,-77.98 367.7474,-82.1195"/>
</g>
<!-- in_2&#45;&gt;h_3 -->
<g id="edge24" class="edge">
<title>in_2&#45;&gt;h_3</title>
<path fill="none" stroke="#000000" d="M322.8325,-11.101C341.1911,-24.0094 398.2972,-64.1621 427.467,-84.6721"/>
<polygon fill="#000000" stroke="#000000" points="425.6781,-87.6929 435.8716,-90.5816 429.7044,-81.9666 425.6781,-87.6929"/>
</g>
<!-- in_2&#45;&gt;h_4 -->
<g id="edge25" class="edge">
<title>in_2&#45;&gt;h_4</title>
<path fill="none" stroke="#000000" d="M323.7622,-10.2031C350.0227,-22.6423 445.8385,-68.0287 487.4694,-87.7487"/>
<polygon fill="#000000" stroke="#000000" points="486.057,-90.9524 496.5927,-92.0702 489.0536,-84.6262 486.057,-90.9524"/>
</g>
<!-- in_2&#45;&gt;h_5 -->
<g id="edge26" class="edge">
<title>in_2&#45;&gt;h_5</title>
<path fill="none" stroke="#000000" d="M323.7404,-9.4073C356.1066,-20.9667 496.1709,-70.9896 548.8587,-89.8067"/>
<polygon fill="#000000" stroke="#000000" points="547.8457,-93.1614 558.4404,-93.2287 550.2001,-86.5692 547.8457,-93.1614"/>
</g>
<!-- in_2&#45;&gt;h_6 -->
<g id="edge27" class="edge">
<title>in_2&#45;&gt;h_6</title>
<path fill="none" stroke="#000000" d="M310.0338,-9.0489C272.3526,-20.1316 92.36,-73.0706 31.3081,-91.027"/>
<polygon fill="#000000" stroke="#000000" points="30.2601,-87.6869 21.6541,-93.8664 32.2354,-94.4025 30.2601,-87.6869"/>
</g>
<!-- in_2&#45;&gt;h_7 -->
<g id="edge28" class="edge">
<title>in_2&#45;&gt;h_7</title>
<path fill="none" stroke="#000000" d="M310.2194,-9.501C278.5304,-21.1896 144.4134,-70.659 93.0903,-89.5897"/>
<polygon fill="#000000" stroke="#000000" points="91.6327,-86.3967 83.4618,-93.1411 94.0551,-92.9642 91.6327,-86.3967"/>
</g>
<!-- in_2&#45;&gt;h_8 -->
<g id="edge29" class="edge">
<title>in_2&#45;&gt;h_8</title>
<path fill="none" stroke="#000000" d="M310.5225,-10.2031C285.4209,-22.616 193.9741,-67.837 153.9618,-87.6233"/>
<polygon fill="#000000" stroke="#000000" points="152.3815,-84.5001 144.9691,-92.0702 155.4845,-90.7748 152.3815,-84.5001"/>
</g>
<!-- in_2&#45;&gt;h_9 -->
<g id="edge30" class="edge">
<title>in_2&#45;&gt;h_9</title>
<path fill="none" stroke="#000000" d="M311.2122,-11.3409C293.7983,-24.4013 241.4092,-63.6931 214.0521,-84.2109"/>
<polygon fill="#000000" stroke="#000000" points="211.7209,-81.5843 205.8208,-90.3844 215.9209,-87.1843 211.7209,-81.5843"/>
</g>
<!-- in_3 -->
<g id="node4" class="node">
<title>in_3</title>
<ellipse fill="none" stroke="#000000" cx="371" cy="-7" rx="7" ry="7"/>
</g>
<!-- in_3&#45;&gt;h_0 -->
<g id="edge31" class="edge">
<title>in_3&#45;&gt;h_0</title>
<path fill="none" stroke="#000000" d="M365.2919,-11.5868C348.943,-24.7244 301.4758,-62.8677 275.8608,-83.4511"/>
<polygon fill="#000000" stroke="#000000" points="273.4014,-80.9374 267.7987,-89.9296 277.7862,-86.394 273.4014,-80.9374"/>
</g>
<!-- in_3&#45;&gt;h_1 -->
<g id="edge32" class="edge">
<title>in_3&#45;&gt;h_1</title>
<path fill="none" stroke="#000000" d="M367.5633,-13.1861C360.2066,-26.4282 342.6835,-57.9698 331.3557,-78.3597"/>
<polygon fill="#000000" stroke="#000000" points="328.1611,-76.9031 326.3642,-87.3444 334.2803,-80.3026 328.1611,-76.9031"/>
</g>
<!-- in_3&#45;&gt;h_2 -->
<g id="edge33" class="edge">
<title>in_3&#45;&gt;h_2</title>
<path fill="none" stroke="#000000" d="M371.9416,-14.0621C373.6945,-27.2086 377.5208,-55.9064 380.1781,-75.8359"/>
<polygon fill="#000000" stroke="#000000" points="376.7225,-76.4017 381.5135,-85.8514 383.6611,-75.4765 376.7225,-76.4017"/>
</g>
<!-- in_3&#45;&gt;h_3 -->
<g id="edge34" class="edge">
<title>in_3&#45;&gt;h_3</title>
<path fill="none" stroke="#000000" d="M375.629,-12.6299C386.5928,-25.9642 414.4889,-59.8919 431.3778,-80.4324"/>
<polygon fill="#000000" stroke="#000000" points="428.8059,-82.8154 437.8605,-88.3168 434.2129,-78.3696 428.8059,-82.8154"/>
</g>
<!-- in_3&#45;&gt;h_4 -->
<g id="edge35" class="edge">
<title>in_3&#45;&gt;h_4</title>
<path fill="none" stroke="#000000" d="M376.8438,-10.8672C396.1034,-23.6126 458.112,-64.6477 489.0696,-85.1343"/>
<polygon fill="#000000" stroke="#000000" points="487.3276,-88.1785 497.5985,-90.7784 491.1907,-82.3409 487.3276,-88.1785"/>
</g>
<!-- in_3&#45;&gt;h_5 -->
<g id="edge36" class="edge">
<title>in_3&#45;&gt;h_5</title>
<path fill="none" stroke="#000000" d="M377.5878,-9.9945C404.4243,-22.1929 506.1275,-68.4216 549.3619,-88.0736"/>
<polygon fill="#000000" stroke="#000000" points="548.012,-91.3046 558.564,-92.2564 550.9087,-84.932 548.012,-91.3046"/>
</g>
<!-- in_3&#45;&gt;h_6 -->
<g id="edge37" class="edge">
<title>in_3&#45;&gt;h_6</title>
<path fill="none" stroke="#000000" d="M364.13,-8.7175C322.2391,-19.1902 100.6943,-74.5764 31.5987,-91.8503"/>
<polygon fill="#000000" stroke="#000000" points="30.7216,-88.4618 21.8691,-94.2827 32.4194,-95.2528 30.7216,-88.4618"/>
</g>
<!-- in_3&#45;&gt;h_7 -->
<g id="edge38" class="edge">
<title>in_3&#45;&gt;h_7</title>
<path fill="none" stroke="#000000" d="M364.2159,-9.0489C327.6774,-20.084 153.7354,-72.6168 93.5493,-90.7938"/>
<polygon fill="#000000" stroke="#000000" points="92.2549,-87.5286 83.6938,-93.7703 94.2787,-94.2296 92.2549,-87.5286"/>
</g>
<!-- in_3&#45;&gt;h_8 -->
<g id="edge39" class="edge">
<title>in_3&#45;&gt;h_8</title>
<path fill="none" stroke="#000000" d="M364.1915,-9.5965C333.2114,-21.4109 204.9252,-70.3336 155.0035,-89.3716"/>
<polygon fill="#000000" stroke="#000000" points="153.446,-86.2196 145.3495,-93.0531 155.9403,-92.7601 153.446,-86.2196"/>
</g>
<!-- in_3&#45;&gt;h_9 -->
<g id="edge40" class="edge">
<title>in_3&#45;&gt;h_9</title>
<path fill="none" stroke="#000000" d="M364.3915,-10.4182C340.0022,-23.0334 254.4757,-67.2712 216.0026,-87.1711"/>
<polygon fill="#000000" stroke="#000000" points="214.1672,-84.1799 206.893,-91.8829 217.3832,-90.3974 214.1672,-84.1799"/>
</g>
<!-- in_4 -->
<g id="node5" class="node">
<title>in_4</title>
<ellipse fill="none" stroke="#000000" cx="425" cy="-7" rx="7" ry="7"/>
</g>
<!-- in_4&#45;&gt;h_0 -->
<g id="edge41" class="edge">
<title>in_4&#45;&gt;h_0</title>
<path fill="none" stroke="#000000" d="M418.6953,-10.4182C395.6346,-22.921 315.2822,-66.4855 278.1204,-86.6335"/>
<polygon fill="#000000" stroke="#000000" points="275.9906,-83.8069 268.8677,-91.65 279.327,-89.9606 275.9906,-83.8069"/>
</g>
<!-- in_4&#45;&gt;h_1 -->
<g id="edge42" class="edge">
<title>in_4&#45;&gt;h_1</title>
<path fill="none" stroke="#000000" d="M419.6996,-11.5868C404.6585,-24.6032 361.2525,-62.1661 337.3198,-82.8771"/>
<polygon fill="#000000" stroke="#000000" points="334.7435,-80.4779 329.4722,-89.6683 339.3242,-85.7711 334.7435,-80.4779"/>
</g>
<!-- in_4&#45;&gt;h_2 -->
<g id="edge43" class="edge">
<title>in_4&#45;&gt;h_2</title>
<path fill="none" stroke="#000000" d="M421.9795,-13.4726C415.8007,-26.7128 401.5045,-57.3474 392.0508,-77.6055"/>
<polygon fill="#000000" stroke="#000000" points="388.7936,-76.3088 387.7363,-86.8508 395.1368,-79.2691 388.7936,-76.3088"/>
</g>
<!-- in_4&#45;&gt;h_3 -->
<g id="edge44" class="edge">
<title>in_4&#45;&gt;h_3</title>
<path fill="none" stroke="#000000" d="M426.5694,-14.0621C429.5063,-27.2785 435.936,-56.2121 440.3674,-76.1532"/>
<polygon fill="#000000" stroke="#000000" points="437.0027,-77.1469 442.5888,-86.1495 443.8361,-75.6283 437.0027,-77.1469"/>
</g>
<!-- in_4&#45;&gt;h_4 -->
<g id="edge45" class="edge">
<title>in_4&#45;&gt;h_4</title>
<path fill="none" stroke="#000000" d="M429.8839,-12.3604C442.0053,-25.6644 473.8394,-60.6042 492.5998,-81.1949"/>
<polygon fill="#000000" stroke="#000000" points="490.2018,-83.7597 499.5239,-88.7945 495.3761,-79.0453 490.2018,-83.7597"/>
</g>
<!-- in_4&#45;&gt;h_5 -->
<g id="edge46" class="edge">
<title>in_4&#45;&gt;h_5</title>
<path fill="none" stroke="#000000" d="M431.1875,-10.8672C451.766,-23.7288 518.437,-65.3981 550.903,-85.6894"/>
<polygon fill="#000000" stroke="#000000" points="549.1052,-88.6931 559.4402,-91.0251 552.8153,-82.7571 549.1052,-88.6931"/>
</g>
<!-- in_4&#45;&gt;h_6 -->
<g id="edge47" class="edge">
<title>in_4&#45;&gt;h_6</title>
<path fill="none" stroke="#000000" d="M418.1597,-8.487C372.266,-18.4639 108.6549,-75.7707 31.9395,-92.4479"/>
<polygon fill="#000000" stroke="#000000" points="31.0534,-89.0587 22.0251,-94.6032 32.5404,-95.899 31.0534,-89.0587"/>
</g>
<!-- in_4&#45;&gt;h_7 -->
<g id="edge48" class="edge">
<title>in_4&#45;&gt;h_7</title>
<path fill="none" stroke="#000000" d="M417.9687,-8.7978C376.3894,-19.4288 162.1913,-74.1954 93.9272,-91.6493"/>
<polygon fill="#000000" stroke="#000000" points="92.7595,-88.3352 83.9381,-94.2033 94.4935,-95.117 92.7595,-88.3352"/>
</g>
<!-- in_4&#45;&gt;h_8 -->
<g id="edge49" class="edge">
<title>in_4&#45;&gt;h_8</title>
<path fill="none" stroke="#000000" d="M418.1175,-9.136C382.0233,-20.3376 214.0126,-72.4789 155.3094,-90.6971"/>
<polygon fill="#000000" stroke="#000000" points="154.1899,-87.3798 145.6767,-93.6865 156.2648,-94.0652 154.1899,-87.3798"/>
</g>
<!-- in_4&#45;&gt;h_9 -->
<g id="edge50" class="edge">
<title>in_4&#45;&gt;h_9</title>
<path fill="none" stroke="#000000" d="M418.4223,-9.5965C388.5604,-21.384 265.1178,-70.1114 216.6554,-89.2413"/>
<polygon fill="#000000" stroke="#000000" points="215.2817,-86.0207 207.2653,-92.9479 217.8519,-92.5317 215.2817,-86.0207"/>
</g>
<!-- in_5 -->
<g id="node6" class="node">
<title>in_5</title>
<ellipse fill="none" stroke="#000000" cx="479" cy="-7" rx="7" ry="7"/>
</g>
<!-- in_5&#45;&gt;h_0 -->
<g id="edge51" class="edge">
<title>in_5&#45;&gt;h_0</title>
<path fill="none" stroke="#000000" d="M472.1746,-9.7922C442.7089,-21.8463 325.7808,-69.6806 278.7465,-88.9219"/>
<polygon fill="#000000" stroke="#000000" points="277.2726,-85.7432 269.3423,-92.769 279.9231,-92.2221 277.2726,-85.7432"/>
</g>
<!-- in_5&#45;&gt;h_1 -->
<g id="edge52" class="edge">
<title>in_5&#45;&gt;h_1</title>
<path fill="none" stroke="#000000" d="M472.6105,-10.6396C450.2354,-23.3849 374.8637,-66.3181 339.5484,-86.4344"/>
<polygon fill="#000000" stroke="#000000" points="337.6841,-83.4684 330.7272,-91.4592 341.1488,-89.5508 337.6841,-83.4684"/>
</g>
<!-- in_5&#45;&gt;h_2 -->
<g id="edge53" class="edge">
<title>in_5&#45;&gt;h_2</title>
<path fill="none" stroke="#000000" d="M473.8386,-11.8388C459.8179,-24.9832 420.6031,-61.7471 398.556,-82.4162"/>
<polygon fill="#000000" stroke="#000000" points="395.9368,-80.0742 391.0352,-89.467 400.7244,-85.1809 395.9368,-80.0742"/>
</g>
<!-- in_5&#45;&gt;h_3 -->
<g id="edge54" class="edge">
<title>in_5&#45;&gt;h_3</title>
<path fill="none" stroke="#000000" d="M476.4445,-13.7646C471.4207,-27.0627 460.0876,-57.0622 452.4903,-77.1727"/>
<polygon fill="#000000" stroke="#000000" points="449.171,-76.0554 448.9111,-86.647 455.7193,-78.5292 449.171,-76.0554"/>
</g>
<!-- in_5&#45;&gt;h_4 -->
<g id="edge55" class="edge">
<title>in_5&#45;&gt;h_4</title>
<path fill="none" stroke="#000000" d="M481.1046,-13.7646C485.2012,-26.9324 494.3925,-56.4759 500.6467,-76.5787"/>
<polygon fill="#000000" stroke="#000000" points="497.3749,-77.8441 503.6876,-86.353 504.0589,-75.7646 497.3749,-77.8441"/>
</g>
<!-- in_5&#45;&gt;h_5 -->
<g id="edge56" class="edge">
<title>in_5&#45;&gt;h_5</title>
<path fill="none" stroke="#000000" d="M484.0967,-12.0967C497.3518,-25.3518 533.3038,-61.3038 553.9241,-81.9241"/>
<polygon fill="#000000" stroke="#000000" points="551.4511,-84.4008 560.997,-88.997 556.4008,-79.4511 551.4511,-84.4008"/>
</g>
<!-- in_5&#45;&gt;h_6 -->
<g id="edge57" class="edge">
<title>in_5&#45;&gt;h_6</title>
<path fill="none" stroke="#000000" d="M472.0211,-8.3421C421.7973,-18.0005 115.1211,-76.9767 31.8485,-92.9907"/>
<polygon fill="#000000" stroke="#000000" points="30.9873,-89.5921 21.8282,-94.9176 32.3093,-96.4661 30.9873,-89.5921"/>
</g>
<!-- in_5&#45;&gt;h_7 -->
<g id="edge58" class="edge">
<title>in_5&#45;&gt;h_7</title>
<path fill="none" stroke="#000000" d="M471.9531,-8.5621C426.0814,-18.7307 169.4474,-75.62 93.9155,-92.3636"/>
<polygon fill="#000000" stroke="#000000" points="92.7735,-89.0317 83.768,-94.613 94.2885,-95.8658 92.7735,-89.0317"/>
</g>
<!-- in_5&#45;&gt;h_8 -->
<g id="edge59" class="edge">
<title>in_5&#45;&gt;h_8</title>
<path fill="none" stroke="#000000" d="M472.1285,-8.7978C431.4942,-19.4288 222.1642,-74.1954 155.4516,-91.6493"/>
<polygon fill="#000000" stroke="#000000" points="154.478,-88.2861 145.6895,-94.2033 156.2498,-95.0582 154.478,-88.2861"/>
</g>
<!-- in_5&#45;&gt;h_9 -->
<g id="edge60" class="edge">
<title>in_5&#45;&gt;h_9</title>
<path fill="none" stroke="#000000" d="M472.3073,-9.136C437.3601,-20.2893 275.2379,-72.0305 217.4926,-90.4598"/>
<polygon fill="#000000" stroke="#000000" points="216.1528,-87.2134 207.6904,-93.5882 218.2811,-93.882 216.1528,-87.2134"/>
</g>
<!-- in_6 -->
<g id="node7" class="node">
<title>in_6</title>
<ellipse fill="none" stroke="#000000" cx="101" cy="-7" rx="7" ry="7"/>
</g>
<!-- in_6&#45;&gt;h_0 -->
<g id="edge61" class="edge">
<title>in_6&#45;&gt;h_0</title>
<path fill="none" stroke="#000000" d="M107.3895,-10.6396C129.7646,-23.3849 205.1363,-66.3181 240.4516,-86.4344"/>
<polygon fill="#000000" stroke="#000000" points="238.8512,-89.5508 249.2728,-91.4592 242.3159,-83.4684 238.8512,-89.5508"/>
</g>
<!-- in_6&#45;&gt;h_1 -->
<g id="edge62" class="edge">
<title>in_6&#45;&gt;h_1</title>
<path fill="none" stroke="#000000" d="M107.8254,-9.7922C137.2911,-21.8463 254.2192,-69.6806 301.2535,-88.9219"/>
<polygon fill="#000000" stroke="#000000" points="300.0769,-92.2221 310.6577,-92.769 302.7274,-85.7432 300.0769,-92.2221"/>
</g>
<!-- in_6&#45;&gt;h_2 -->
<g id="edge63" class="edge">
<title>in_6&#45;&gt;h_2</title>
<path fill="none" stroke="#000000" d="M107.6927,-9.136C142.6399,-20.2893 304.7621,-72.0305 362.5074,-90.4598"/>
<polygon fill="#000000" stroke="#000000" points="361.7189,-93.882 372.3096,-93.5882 363.8472,-87.2134 361.7189,-93.882"/>
</g>
<!-- in_6&#45;&gt;h_3 -->
<g id="edge64" class="edge">
<title>in_6&#45;&gt;h_3</title>
<path fill="none" stroke="#000000" d="M107.8715,-8.7978C148.5058,-19.4288 357.8358,-74.1954 424.5484,-91.6493"/>
<polygon fill="#000000" stroke="#000000" points="423.7502,-95.0582 434.3105,-94.2033 425.522,-88.2861 423.7502,-95.0582"/>
</g>
<!-- in_6&#45;&gt;h_4 -->
<g id="edge65" class="edge">
<title>in_6&#45;&gt;h_4</title>
<path fill="none" stroke="#000000" d="M108.0469,-8.5621C153.9186,-18.7307 410.5526,-75.62 486.0845,-92.3636"/>
<polygon fill="#000000" stroke="#000000" points="485.7115,-95.8658 496.232,-94.613 487.2265,-89.0317 485.7115,-95.8658"/>
</g>
<!-- in_6&#45;&gt;h_5 -->
<g id="edge66" class="edge">
<title>in_6&#45;&gt;h_5</title>
<path fill="none" stroke="#000000" d="M107.9789,-8.3421C158.2027,-18.0005 464.8789,-76.9767 548.1515,-92.9907"/>
<polygon fill="#000000" stroke="#000000" points="547.6907,-96.4661 558.1718,-94.9176 549.0127,-89.5921 547.6907,-96.4661"/>
</g>
<!-- in_6&#45;&gt;h_6 -->
<g id="edge67" class="edge">
<title>in_6&#45;&gt;h_6</title>
<path fill="none" stroke="#000000" d="M95.9033,-12.0967C82.6482,-25.3518 46.6962,-61.3038 26.0759,-81.9241"/>
<polygon fill="#000000" stroke="#000000" points="23.5992,-79.4511 19.003,-88.997 28.5489,-84.4008 23.5992,-79.4511"/>
</g>
<!-- in_6&#45;&gt;h_7 -->
<g id="edge68" class="edge">
<title>in_6&#45;&gt;h_7</title>
<path fill="none" stroke="#000000" d="M98.8954,-13.7646C94.7988,-26.9324 85.6075,-56.4759 79.3533,-76.5787"/>
<polygon fill="#000000" stroke="#000000" points="75.9411,-75.7646 76.3124,-86.353 82.6251,-77.8441 75.9411,-75.7646"/>
</g>
<!-- in_6&#45;&gt;h_8 -->
<g id="edge69" class="edge">
<title>in_6&#45;&gt;h_8</title>
<path fill="none" stroke="#000000" d="M103.5555,-13.7646C108.5793,-27.0627 119.9124,-57.0622 127.5097,-77.1727"/>
<polygon fill="#000000" stroke="#000000" points="124.2807,-78.5292 131.0889,-86.647 130.829,-76.0554 124.2807,-78.5292"/>
</g>
<!-- in_6&#45;&gt;h_9 -->
<g id="edge70" class="edge">
<title>in_6&#45;&gt;h_9</title>
<path fill="none" stroke="#000000" d="M106.1614,-11.8388C120.1821,-24.9832 159.3969,-61.7471 181.444,-82.4162"/>
<polygon fill="#000000" stroke="#000000" points="179.2756,-85.1809 188.9648,-89.467 184.0632,-80.0742 179.2756,-85.1809"/>
</g>
<!-- in_7 -->
<g id="node8" class="node">
<title>in_7</title>
<ellipse fill="none" stroke="#000000" cx="155" cy="-7" rx="7" ry="7"/>
</g>
<!-- in_7&#45;&gt;h_0 -->
<g id="edge71" class="edge">
<title>in_7&#45;&gt;h_0</title>
<path fill="none" stroke="#000000" d="M160.3004,-11.5868C175.3415,-24.6032 218.7475,-62.1661 242.6802,-82.8771"/>
<polygon fill="#000000" stroke="#000000" points="240.6758,-85.7711 250.5278,-89.6683 245.2565,-80.4779 240.6758,-85.7711"/>
</g>
<!-- in_7&#45;&gt;h_1 -->
<g id="edge72" class="edge">
<title>in_7&#45;&gt;h_1</title>
<path fill="none" stroke="#000000" d="M161.3047,-10.4182C184.3654,-22.921 264.7178,-66.4855 301.8796,-86.6335"/>
<polygon fill="#000000" stroke="#000000" points="300.673,-89.9606 311.1323,-91.65 304.0094,-83.8069 300.673,-89.9606"/>
</g>
<!-- in_7&#45;&gt;h_2 -->
<g id="edge73" class="edge">
<title>in_7&#45;&gt;h_2</title>
<path fill="none" stroke="#000000" d="M161.5777,-9.5965C191.4396,-21.384 314.8822,-70.1114 363.3446,-89.2413"/>
<polygon fill="#000000" stroke="#000000" points="362.1481,-92.5317 372.7347,-92.9479 364.7183,-86.0207 362.1481,-92.5317"/>
</g>
<!-- in_7&#45;&gt;h_3 -->
<g id="edge74" class="edge">
<title>in_7&#45;&gt;h_3</title>
<path fill="none" stroke="#000000" d="M161.8825,-9.136C197.9767,-20.3376 365.9874,-72.4789 424.6906,-90.6971"/>
<polygon fill="#000000" stroke="#000000" points="423.7352,-94.0652 434.3233,-93.6865 425.8101,-87.3798 423.7352,-94.0652"/>
</g>
<!-- in_7&#45;&gt;h_4 -->
<g id="edge75" class="edge">
<title>in_7&#45;&gt;h_4</title>
<path fill="none" stroke="#000000" d="M162.0313,-8.7978C203.6106,-19.4288 417.8087,-74.1954 486.0728,-91.6493"/>
<polygon fill="#000000" stroke="#000000" points="485.5065,-95.117 496.0619,-94.2033 487.2405,-88.3352 485.5065,-95.117"/>
</g>
<!-- in_7&#45;&gt;h_5 -->
<g id="edge76" class="edge">
<title>in_7&#45;&gt;h_5</title>
<path fill="none" stroke="#000000" d="M161.8403,-8.487C207.734,-18.4639 471.3451,-75.7707 548.0605,-92.4479"/>
<polygon fill="#000000" stroke="#000000" points="547.4596,-95.899 557.9749,-94.6032 548.9466,-89.0587 547.4596,-95.899"/>
</g>
<!-- in_7&#45;&gt;h_6 -->
<g id="edge77" class="edge">
<title>in_7&#45;&gt;h_6</title>
<path fill="none" stroke="#000000" d="M148.8125,-10.8672C128.234,-23.7288 61.563,-65.3981 29.097,-85.6894"/>
<polygon fill="#000000" stroke="#000000" points="27.1847,-82.7571 20.5598,-91.0251 30.8948,-88.6931 27.1847,-82.7571"/>
</g>
<!-- in_7&#45;&gt;h_7 -->
<g id="edge78" class="edge">
<title>in_7&#45;&gt;h_7</title>
<path fill="none" stroke="#000000" d="M150.1161,-12.3604C137.9947,-25.6644 106.1606,-60.6042 87.4002,-81.1949"/>
<polygon fill="#000000" stroke="#000000" points="84.6239,-79.0453 80.4761,-88.7945 89.7982,-83.7597 84.6239,-79.0453"/>
</g>
<!-- in_7&#45;&gt;h_8 -->
<g id="edge79" class="edge">
<title>in_7&#45;&gt;h_8</title>
<path fill="none" stroke="#000000" d="M153.4306,-14.0621C150.4937,-27.2785 144.064,-56.2121 139.6326,-76.1532"/>
<polygon fill="#000000" stroke="#000000" points="136.1639,-75.6283 137.4112,-86.1495 142.9973,-77.1469 136.1639,-75.6283"/>
</g>
<!-- in_7&#45;&gt;h_9 -->
<g id="edge80" class="edge">
<title>in_7&#45;&gt;h_9</title>
<path fill="none" stroke="#000000" d="M158.0205,-13.4726C164.1993,-26.7128 178.4955,-57.3474 187.9492,-77.6055"/>
<polygon fill="#000000" stroke="#000000" points="184.8632,-79.2691 192.2637,-86.8508 191.2064,-76.3088 184.8632,-79.2691"/>
</g>
<!-- out -->
<g id="node20" class="node">
<title>out</title>
<ellipse fill="none" stroke="#000000" cx="290" cy="-191" rx="11" ry="11"/>
</g>
<!-- h_0&#45;&gt;out -->
<g id="edge81" class="edge">
<title>h_0&#45;&gt;out</title>
<path fill="none" stroke="#000000" d="M262.5561,-107.783C267.6015,-123.0821 276.9312,-151.372 283.2987,-170.6798"/>
<polygon fill="#000000" stroke="#000000" points="280.0294,-171.9421 286.4854,-180.3428 286.6773,-169.7497 280.0294,-171.9421"/>
</g>
<!-- h_1&#45;&gt;out -->
<g id="edge82" class="edge">
<title>h_1&#45;&gt;out</title>
<path fill="none" stroke="#000000" d="M317.4439,-107.783C312.3985,-123.0821 303.0688,-151.372 296.7013,-170.6798"/>
<polygon fill="#000000" stroke="#000000" points="293.3227,-169.7497 293.5146,-180.3428 299.9706,-171.9421 293.3227,-169.7497"/>
</g>
<!-- h_2&#45;&gt;out -->
<g id="edge83" class="edge">
<title>h_2&#45;&gt;out</title>
<path fill="none" stroke="#000000" d="M375.0709,-105.0144C359.5596,-120.6925 324.9778,-155.6461 305.0097,-175.8289"/>
<polygon fill="#000000" stroke="#000000" points="302.4542,-173.4355 297.9091,-183.0059 307.4303,-178.3587 302.4542,-173.4355"/>
</g>
<!-- h_3&#45;&gt;out -->
<g id="edge84" class="edge">
<title>h_3&#45;&gt;out</title>
<path fill="none" stroke="#000000" d="M435.3041,-102.8801C409.969,-118.2446 341.468,-159.7871 308.3801,-179.8534"/>
<polygon fill="#000000" stroke="#000000" points="306.4279,-176.9439 299.6923,-185.1221 310.0577,-182.9293 306.4279,-176.9439"/>
</g>
<!-- h_4&#45;&gt;out -->
<g id="edge85" class="edge">
<title>h_4&#45;&gt;out</title>
<path fill="none" stroke="#000000" d="M496.8247,-101.4077C463.0091,-116.056 354.0056,-163.2741 309.3511,-182.6175"/>
<polygon fill="#000000" stroke="#000000" points="307.9381,-179.4152 300.1533,-186.6018 310.7206,-185.8385 307.9381,-179.4152"/>
</g>
<!-- h_5&#45;&gt;out -->
<g id="edge86" class="edge">
<title>h_5&#45;&gt;out</title>
<path fill="none" stroke="#000000" d="M558.4036,-100.5701C516.9715,-114.5293 365.5057,-165.5608 310.3029,-184.1596"/>
<polygon fill="#000000" stroke="#000000" points="308.9661,-180.9166 300.607,-187.4263 311.2011,-187.5502 308.9661,-180.9166"/>
</g>
<!-- h_6&#45;&gt;out -->
<g id="edge87" class="edge">
<title>h_6&#45;&gt;out</title>
<path fill="none" stroke="#000000" d="M21.5964,-100.5701C63.0285,-114.5293 214.4943,-165.5608 269.6971,-184.1596"/>
<polygon fill="#000000" stroke="#000000" points="268.7989,-187.5502 279.393,-187.4263 271.0339,-180.9166 268.7989,-187.5502"/>
</g>
<!-- h_7&#45;&gt;out -->
<g id="edge88" class="edge">
<title>h_7&#45;&gt;out</title>
<path fill="none" stroke="#000000" d="M83.1753,-101.4077C116.9909,-116.056 225.9944,-163.2741 270.6489,-182.6175"/>
<polygon fill="#000000" stroke="#000000" points="269.2794,-185.8385 279.8467,-186.6018 272.0619,-179.4152 269.2794,-185.8385"/>
</g>
<!-- h_8&#45;&gt;out -->
<g id="edge89" class="edge">
<title>h_8&#45;&gt;out</title>
<path fill="none" stroke="#000000" d="M144.6959,-102.8801C170.031,-118.2446 238.532,-159.7871 271.6199,-179.8534"/>
<polygon fill="#000000" stroke="#000000" points="269.9423,-182.9293 280.3077,-185.1221 273.5721,-176.9439 269.9423,-182.9293"/>
</g>
<!-- h_9&#45;&gt;out -->
<g id="edge90" class="edge">
<title>h_9&#45;&gt;out</title>
<path fill="none" stroke="#000000" d="M204.9291,-105.0144C220.4404,-120.6925 255.0222,-155.6461 274.9903,-175.8289"/>
<polygon fill="#000000" stroke="#000000" points="272.5697,-178.3587 282.0909,-183.0059 277.5458,-173.4355 272.5697,-178.3587"/>
</g>
<!-- empty -->
<g id="node19" class="node">
<title>empty</title>
<ellipse fill="none" stroke="#000000" cx="290" cy="-277.5" rx="3.5" ry="3.5"/>
</g>
<!-- out&#45;&gt;empty -->
<g id="edge91" class="edge">
<title>out&#45;&gt;empty</title>
<path fill="none" stroke="#000000" d="M290,-202.3084C290,-218.0803 290,-246.6566 290,-263.6745"/>
<polygon fill="#000000" stroke="#000000" points="286.5001,-263.6751 290,-273.6751 293.5001,-263.6751 286.5001,-263.6751"/>
</g>
</g>
</svg>
