<?xml version="1.0" encoding="UTF-8" standalone="no"?>
<!DOCTYPE svg PUBLIC "-//W3C//DTD SVG 1.1//EN"
 "http://www.w3.org/Graphics/SVG/1.1/DTD/svg11.dtd">
<!-- Generated by graphviz version 2.40.1 (20161225.0304)
 -->
<!-- Title: perceptron Pages: 1 -->
<svg width="588pt" height="383pt"
 viewBox="0.00 0.00 588.00 383.00" xmlns="http://www.w3.org/2000/svg" xmlns:xlink="http://www.w3.org/1999/xlink">
<g id="graph0" class="graph" transform="scale(1 1) rotate(0) translate(4 379)">
<title>perceptron</title>
<polygon fill="#ffffff" stroke="transparent" points="-4,4 -4,-379 584,-379 584,4 -4,4"/>
<!-- in_0 -->
<g id="node1" class="node">
<title>in_0</title>
<ellipse fill="none" stroke="#000000" cx="209" cy="-7" rx="7" ry="7"/>
</g>
<!-- h_1_0 -->
<g id="node9" class="node">
<title>h_1_0</title>
<ellipse fill="none" stroke="#000000" cx="259" cy="-97" rx="11" ry="11"/>
</g>
<!-- in_0&#45;&gt;h_1_0 -->
<g id="edge1" class="edge">
<title>in_0&#45;&gt;h_1_0</title>
<path fill="none" stroke="#000000" d="M212.4367,-13.1861C219.7934,-26.4282 237.3165,-57.9698 248.6443,-78.3597"/>
<polygon fill="#000000" stroke="#000000" points="245.7197,-80.3026 253.6358,-87.3444 251.8389,-76.9031 245.7197,-80.3026"/>
</g>
<!-- h_1_1 -->
<g id="node10" class="node">
<title>h_1_1</title>
<ellipse fill="none" stroke="#000000" cx="321" cy="-97" rx="11" ry="11"/>
</g>
<!-- in_0&#45;&gt;h_1_1 -->
<g id="edge2" class="edge">
<title>in_0&#45;&gt;h_1_1</title>
<path fill="none" stroke="#000000" d="M214.7081,-11.5868C231.057,-24.7244 278.5242,-62.8677 304.1392,-83.4511"/>
<polygon fill="#000000" stroke="#000000" points="302.2138,-86.394 312.2013,-89.9296 306.5986,-80.9374 302.2138,-86.394"/>
</g>
<!-- h_1_2 -->
<g id="node11" class="node">
<title>h_1_2</title>
<ellipse fill="none" stroke="#000000" cx="383" cy="-97" rx="11" ry="11"/>
</g>
<!-- in_0&#45;&gt;h_1_2 -->
<g id="edge3" class="edge">
<title>in_0&#45;&gt;h_1_2</title>
<path fill="none" stroke="#000000" d="M215.6085,-10.4182C239.9978,-23.0334 325.5243,-67.2712 363.9974,-87.1711"/>
<polygon fill="#000000" stroke="#000000" points="362.6168,-90.3974 373.107,-91.8829 365.8328,-84.1799 362.6168,-90.3974"/>
</g>
<!-- h_1_3 -->
<g id="node12" class="node">
<title>h_1_3</title>
<ellipse fill="none" stroke="#000000" cx="445" cy="-97" rx="11" ry="11"/>
</g>
<!-- in_0&#45;&gt;h_1_3 -->
<g id="edge4" class="edge">
<title>in_0&#45;&gt;h_1_3</title>
<path fill="none" stroke="#000000" d="M215.8085,-9.5965C246.7886,-21.4109 375.0748,-70.3336 424.9965,-89.3716"/>
<polygon fill="#000000" stroke="#000000" points="424.0597,-92.7601 434.6505,-93.0531 426.554,-86.2196 424.0597,-92.7601"/>
</g>
<!-- h_1_4 -->
<g id="node13" class="node">
<title>h_1_4</title>
<ellipse fill="none" stroke="#000000" cx="507" cy="-97" rx="11" ry="11"/>
</g>
<!-- in_0&#45;&gt;h_1_4 -->
<g id="edge5" class="edge">
<title>in_0&#45;&gt;h_1_4</title>
<path fill="none" stroke="#000000" d="M215.7841,-9.0489C252.3226,-20.084 426.2646,-72.6168 486.4507,-90.7938"/>
<polygon fill="#000000" stroke="#000000" points="485.7213,-94.2296 496.3062,-93.7703 487.7451,-87.5286 485.7213,-94.2296"/>
</g>
<!-- h_1_5 -->
<g id="node14" class="node">
<title>h_1_5</title>
<ellipse fill="none" stroke="#000000" cx="569" cy="-97" rx="11" ry="11"/>
</g>
<!-- in_0&#45;&gt;h_1_5 -->
<g id="edge6" class="edge">
<title>in_0&#45;&gt;h_1_5</title>
<path fill="none" stroke="#000000" d="M215.87,-8.7175C257.7609,-19.1902 479.3057,-74.5764 548.4013,-91.8503"/>
<polygon fill="#000000" stroke="#000000" points="547.5806,-95.2528 558.1309,-94.2827 549.2784,-88.4618 547.5806,-95.2528"/>
</g>
<!-- h_1_6 -->
<g id="node15" class="node">
<title>h_1_6</title>
<ellipse fill="none" stroke="#000000" cx="11" cy="-97" rx="11" ry="11"/>
</g>
<!-- in_0&#45;&gt;h_1_6 -->
<g id="edge7" class="edge">
<title>in_0&#45;&gt;h_1_6</title>
<path fill="none" stroke="#000000" d="M202.4122,-9.9945C175.5757,-22.1929 73.8725,-68.4216 30.6381,-88.0736"/>
<polygon fill="#000000" stroke="#000000" points="29.0913,-84.932 21.436,-92.2564 31.988,-91.3046 29.0913,-84.932"/>
</g>
<!-- h_1_7 -->
<g id="node16" class="node">
<title>h_1_7</title>
<ellipse fill="none" stroke="#000000" cx="73" cy="-97" rx="11" ry="11"/>
</g>
<!-- in_0&#45;&gt;h_1_7 -->
<g id="edge8" class="edge">
<title>in_0&#45;&gt;h_1_7</title>
<path fill="none" stroke="#000000" d="M203.1563,-10.8672C183.8966,-23.6126 121.888,-64.6477 90.9304,-85.1343"/>
<polygon fill="#000000" stroke="#000000" points="88.8093,-82.3409 82.4015,-90.7784 92.6724,-88.1785 88.8093,-82.3409"/>
</g>
<!-- h_1_8 -->
<g id="node17" class="node">
<title>h_1_8</title>
<ellipse fill="none" stroke="#000000" cx="135" cy="-97" rx="11" ry="11"/>
</g>
<!-- in_0&#45;&gt;h_1_8 -->
<g id="edge9" class="edge">
<title>in_0&#45;&gt;h_1_8</title>
<path fill="none" stroke="#000000" d="M204.371,-12.6299C193.4072,-25.9642 165.5111,-59.8919 148.6222,-80.4324"/>
<polygon fill="#000000" stroke="#000000" points="145.7871,-78.3696 142.1395,-88.3168 151.1941,-82.8154 145.7871,-78.3696"/>
</g>
<!-- h_1_9 -->
<g id="node18" class="node">
<title>h_1_9</title>
<ellipse fill="none" stroke="#000000" cx="197" cy="-97" rx="11" ry="11"/>
</g>
<!-- in_0&#45;&gt;h_1_9 -->
<g id="edge10" class="edge">
<title>in_0&#45;&gt;h_1_9</title>
<path fill="none" stroke="#000000" d="M208.0584,-14.0621C206.3055,-27.2086 202.4792,-55.9064 199.8219,-75.8359"/>
<polygon fill="#000000" stroke="#000000" points="196.3389,-75.4765 198.4865,-85.8514 203.2775,-76.4017 196.3389,-75.4765"/>
</g>
<!-- in_1 -->
<g id="node2" class="node">
<title>in_1</title>
<ellipse fill="none" stroke="#000000" cx="263" cy="-7" rx="7" ry="7"/>
</g>
<!-- in_1&#45;&gt;h_1_0 -->
<g id="edge11" class="edge">
<title>in_1&#45;&gt;h_1_0</title>
<path fill="none" stroke="#000000" d="M262.6861,-14.0621C262.1018,-27.2086 260.8264,-55.9064 259.9406,-75.8359"/>
<polygon fill="#000000" stroke="#000000" points="256.443,-75.7058 259.4955,-85.8514 263.4361,-76.0167 256.443,-75.7058"/>
</g>
<!-- in_1&#45;&gt;h_1_1 -->
<g id="edge12" class="edge">
<title>in_1&#45;&gt;h_1_1</title>
<path fill="none" stroke="#000000" d="M266.8055,-12.9052C275.3289,-26.1311 296.2387,-58.5773 309.4521,-79.0809"/>
<polygon fill="#000000" stroke="#000000" points="306.5504,-81.0394 314.9094,-87.5491 312.4344,-77.2474 306.5504,-81.0394"/>
</g>
<!-- in_1&#45;&gt;h_1_2 -->
<g id="edge13" class="edge">
<title>in_1&#45;&gt;h_1_2</title>
<path fill="none" stroke="#000000" d="M268.7878,-11.3409C286.2017,-24.4013 338.5908,-63.6931 365.9479,-84.2109"/>
<polygon fill="#000000" stroke="#000000" points="364.0791,-87.1843 374.1792,-90.3844 368.2791,-81.5843 364.0791,-87.1843"/>
</g>
<!-- in_1&#45;&gt;h_1_3 -->
<g id="edge14" class="edge">
<title>in_1&#45;&gt;h_1_3</title>
<path fill="none" stroke="#000000" d="M269.4775,-10.2031C294.5791,-22.616 386.0259,-67.837 426.0382,-87.6233"/>
<polygon fill="#000000" stroke="#000000" points="424.5155,-90.7748 435.0309,-92.0702 427.6185,-84.5001 424.5155,-90.7748"/>
</g>
<!-- in_1&#45;&gt;h_1_4 -->
<g id="edge15" class="edge">
<title>in_1&#45;&gt;h_1_4</title>
<path fill="none" stroke="#000000" d="M269.7806,-9.501C301.4696,-21.1896 435.5866,-70.659 486.9097,-89.5897"/>
<polygon fill="#000000" stroke="#000000" points="485.9449,-92.9642 496.5382,-93.1411 488.3673,-86.3967 485.9449,-92.9642"/>
</g>
<!-- in_1&#45;&gt;h_1_5 -->
<g id="edge16" class="edge">
<title>in_1&#45;&gt;h_1_5</title>
<path fill="none" stroke="#000000" d="M269.9662,-9.0489C307.6474,-20.1316 487.64,-73.0706 548.6919,-91.027"/>
<polygon fill="#000000" stroke="#000000" points="547.7646,-94.4025 558.3459,-93.8664 549.7399,-87.6869 547.7646,-94.4025"/>
</g>
<!-- in_1&#45;&gt;h_1_6 -->
<g id="edge17" class="edge">
<title>in_1&#45;&gt;h_1_6</title>
<path fill="none" stroke="#000000" d="M256.2596,-9.4073C223.8934,-20.9667 83.8291,-70.9896 31.1413,-89.8067"/>
<polygon fill="#000000" stroke="#000000" points="29.7999,-86.5692 21.5596,-93.2287 32.1543,-93.1614 29.7999,-86.5692"/>
</g>
<!-- in_1&#45;&gt;h_1_7 -->
<g id="edge18" class="edge">
<title>in_1&#45;&gt;h_1_7</title>
<path fill="none" stroke="#000000" d="M256.2378,-10.2031C229.9773,-22.6423 134.1615,-68.0287 92.5306,-87.7487"/>
<polygon fill="#000000" stroke="#000000" points="90.9464,-84.6262 83.4073,-92.0702 93.943,-90.9524 90.9464,-84.6262"/>
</g>
<!-- in_1&#45;&gt;h_1_8 -->
<g id="edge19" class="edge">
<title>in_1&#45;&gt;h_1_8</title>
<path fill="none" stroke="#000000" d="M257.1675,-11.101C238.8089,-24.0094 181.7028,-64.1621 152.533,-84.6721"/>
<polygon fill="#000000" stroke="#000000" points="150.2956,-81.9666 144.1284,-90.5816 154.3219,-87.6929 150.2956,-81.9666"/>
</g>
<!-- in_1&#45;&gt;h_1_9 -->
<g id="edge20" class="edge">
<title>in_1&#45;&gt;h_1_9</title>
<path fill="none" stroke="#000000" d="M258.6696,-12.9052C248.8269,-26.327 224.4689,-59.5424 209.4786,-79.9837"/>
<polygon fill="#000000" stroke="#000000" points="206.6078,-77.98 203.5165,-88.1138 212.2526,-82.1195 206.6078,-77.98"/>
</g>
<!-- in_2 -->
<g id="node3" class="node">
<title>in_2</title>
<ellipse fill="none" stroke="#000000" cx="317" cy="-7" rx="7" ry="7"/>
</g>
<!-- in_2&#45;&gt;h_1_0 -->
<g id="edge21" class="edge">
<title>in_2&#45;&gt;h_1_0</title>
<path fill="none" stroke="#000000" d="M313.1945,-12.9052C304.6711,-26.1311 283.7613,-58.5773 270.5479,-79.0809"/>
<polygon fill="#000000" stroke="#000000" points="267.5656,-77.2474 265.0906,-87.5491 273.4496,-81.0394 267.5656,-77.2474"/>
</g>
<!-- in_2&#45;&gt;h_1_1 -->
<g id="edge22" class="edge">
<title>in_2&#45;&gt;h_1_1</title>
<path fill="none" stroke="#000000" d="M317.3139,-14.0621C317.8982,-27.2086 319.1736,-55.9064 320.0594,-75.8359"/>
<polygon fill="#000000" stroke="#000000" points="316.5639,-76.0167 320.5045,-85.8514 323.557,-75.7058 316.5639,-76.0167"/>
</g>
<!-- in_2&#45;&gt;h_1_2 -->
<g id="edge23" class="edge">
<title>in_2&#45;&gt;h_1_2</title>
<path fill="none" stroke="#000000" d="M321.3304,-12.9052C331.1731,-26.327 355.5311,-59.5424 370.5214,-79.9837"/>
<polygon fill="#000000" stroke="#000000" points="367.7474,-82.1195 376.4835,-88.1138 373.3922,-77.98 367.7474,-82.1195"/>
</g>
<!-- in_2&#45;&gt;h_1_3 -->
<g id="edge24" class="edge">
<title>in_2&#45;&gt;h_1_3</title>
<path fill="none" stroke="#000000" d="M322.8325,-11.101C341.1911,-24.0094 398.2972,-64.1621 427.467,-84.6721"/>
<polygon fill="#000000" stroke="#000000" points="425.6781,-87.6929 435.8716,-90.5816 429.7044,-81.9666 425.6781,-87.6929"/>
</g>
<!-- in_2&#45;&gt;h_1_4 -->
<g id="edge25" class="edge">
<title>in_2&#45;&gt;h_1_4</title>
<path fill="none" stroke="#000000" d="M323.7622,-10.2031C350.0227,-22.6423 445.8385,-68.0287 487.4694,-87.7487"/>
<polygon fill="#000000" stroke="#000000" points="486.057,-90.9524 496.5927,-92.0702 489.0536,-84.6262 486.057,-90.9524"/>
</g>
<!-- in_2&#45;&gt;h_1_5 -->
<g id="edge26" class="edge">
<title>in_2&#45;&gt;h_1_5</title>
<path fill="none" stroke="#000000" d="M323.7404,-9.4073C356.1066,-20.9667 496.1709,-70.9896 548.8587,-89.8067"/>
<polygon fill="#000000" stroke="#000000" points="547.8457,-93.1614 558.4404,-93.2287 550.2001,-86.5692 547.8457,-93.1614"/>
</g>
<!-- in_2&#45;&gt;h_1_6 -->
<g id="edge27" class="edge">
<title>in_2&#45;&gt;h_1_6</title>
<path fill="none" stroke="#000000" d="M310.0338,-9.0489C272.3526,-20.1316 92.36,-73.0706 31.3081,-91.027"/>
<polygon fill="#000000" stroke="#000000" points="30.2601,-87.6869 21.6541,-93.8664 32.2354,-94.4025 30.2601,-87.6869"/>
</g>
<!-- in_2&#45;&gt;h_1_7 -->
<g id="edge28" class="edge">
<title>in_2&#45;&gt;h_1_7</title>
<path fill="none" stroke="#000000" d="M310.2194,-9.501C278.5304,-21.1896 144.4134,-70.659 93.0903,-89.5897"/>
<polygon fill="#000000" stroke="#000000" points="91.6327,-86.3967 83.4618,-93.1411 94.0551,-92.9642 91.6327,-86.3967"/>
</g>
<!-- in_2&#45;&gt;h_1_8 -->
<g id="edge29" class="edge">
<title>in_2&#45;&gt;h_1_8</title>
<path fill="none" stroke="#000000" d="M310.5225,-10.2031C285.4209,-22.616 193.9741,-67.837 153.9618,-87.6233"/>
<polygon fill="#000000" stroke="#000000" points="152.3815,-84.5001 144.9691,-92.0702 155.4845,-90.7748 152.3815,-84.5001"/>
</g>
<!-- in_2&#45;&gt;h_1_9 -->
<g id="edge30" class="edge">
<title>in_2&#45;&gt;h_1_9</title>
<path fill="none" stroke="#000000" d="M311.2122,-11.3409C293.7983,-24.4013 241.4092,-63.6931 214.0521,-84.2109"/>
<polygon fill="#000000" stroke="#000000" points="211.7209,-81.5843 205.8208,-90.3844 215.9209,-87.1843 211.7209,-81.5843"/>
</g>
<!-- in_3 -->
<g id="node4" class="node">
<title>in_3</title>
<ellipse fill="none" stroke="#000000" cx="371" cy="-7" rx="7" ry="7"/>
</g>
<!-- in_3&#45;&gt;h_1_0 -->
<g id="edge31" class="edge">
<title>in_3&#45;&gt;h_1_0</title>
<path fill="none" stroke="#000000" d="M365.2919,-11.5868C348.943,-24.7244 301.4758,-62.8677 275.8608,-83.4511"/>
<polygon fill="#000000" stroke="#000000" points="273.4014,-80.9374 267.7987,-89.9296 277.7862,-86.394 273.4014,-80.9374"/>
</g>
<!-- in_3&#45;&gt;h_1_1 -->
<g id="edge32" class="edge">
<title>in_3&#45;&gt;h_1_1</title>
<path fill="none" stroke="#000000" d="M367.5633,-13.1861C360.2066,-26.4282 342.6835,-57.9698 331.3557,-78.3597"/>
<polygon fill="#000000" stroke="#000000" points="328.1611,-76.9031 326.3642,-87.3444 334.2803,-80.3026 328.1611,-76.9031"/>
</g>
<!-- in_3&#45;&gt;h_1_2 -->
<g id="edge33" class="edge">
<title>in_3&#45;&gt;h_1_2</title>
<path fill="none" stroke="#000000" d="M371.9416,-14.0621C373.6945,-27.2086 377.5208,-55.9064 380.1781,-75.8359"/>
<polygon fill="#000000" stroke="#000000" points="376.7225,-76.4017 381.5135,-85.8514 383.6611,-75.4765 376.7225,-76.4017"/>
</g>
<!-- in_3&#45;&gt;h_1_3 -->
<g id="edge34" class="edge">
<title>in_3&#45;&gt;h_1_3</title>
<path fill="none" stroke="#000000" d="M375.629,-12.6299C386.5928,-25.9642 414.4889,-59.8919 431.3778,-80.4324"/>
<polygon fill="#000000" stroke="#000000" points="428.8059,-82.8154 437.8605,-88.3168 434.2129,-78.3696 428.8059,-82.8154"/>
</g>
<!-- in_3&#45;&gt;h_1_4 -->
<g id="edge35" class="edge">
<title>in_3&#45;&gt;h_1_4</title>
<path fill="none" stroke="#000000" d="M376.8438,-10.8672C396.1034,-23.6126 458.112,-64.6477 489.0696,-85.1343"/>
<polygon fill="#000000" stroke="#000000" points="487.3276,-88.1785 497.5985,-90.7784 491.1907,-82.3409 487.3276,-88.1785"/>
</g>
<!-- in_3&#45;&gt;h_1_5 -->
<g id="edge36" class="edge">
<title>in_3&#45;&gt;h_1_5</title>
<path fill="none" stroke="#000000" d="M377.5878,-9.9945C404.4243,-22.1929 506.1275,-68.4216 549.3619,-88.0736"/>
<polygon fill="#000000" stroke="#000000" points="548.012,-91.3046 558.564,-92.2564 550.9087,-84.932 548.012,-91.3046"/>
</g>
<!-- in_3&#45;&gt;h_1_6 -->
<g id="edge37" class="edge">
<title>in_3&#45;&gt;h_1_6</title>
<path fill="none" stroke="#000000" d="M364.13,-8.7175C322.2391,-19.1902 100.6943,-74.5764 31.5987,-91.8503"/>
<polygon fill="#000000" stroke="#000000" points="30.7216,-88.4618 21.8691,-94.2827 32.4194,-95.2528 30.7216,-88.4618"/>
</g>
<!-- in_3&#45;&gt;h_1_7 -->
<g id="edge38" class="edge">
<title>in_3&#45;&gt;h_1_7</title>
<path fill="none" stroke="#000000" d="M364.2159,-9.0489C327.6774,-20.084 153.7354,-72.6168 93.5493,-90.7938"/>
<polygon fill="#000000" stroke="#000000" points="92.2549,-87.5286 83.6938,-93.7703 94.2787,-94.2296 92.2549,-87.5286"/>
</g>
<!-- in_3&#45;&gt;h_1_8 -->
<g id="edge39" class="edge">
<title>in_3&#45;&gt;h_1_8</title>
<path fill="none" stroke="#000000" d="M364.1915,-9.5965C333.2114,-21.4109 204.9252,-70.3336 155.0035,-89.3716"/>
<polygon fill="#000000" stroke="#000000" points="153.446,-86.2196 145.3495,-93.0531 155.9403,-92.7601 153.446,-86.2196"/>
</g>
<!-- in_3&#45;&gt;h_1_9 -->
<g id="edge40" class="edge">
<title>in_3&#45;&gt;h_1_9</title>
<path fill="none" stroke="#000000" d="M364.3915,-10.4182C340.0022,-23.0334 254.4757,-67.2712 216.0026,-87.1711"/>
<polygon fill="#000000" stroke="#000000" points="214.1672,-84.1799 206.893,-91.8829 217.3832,-90.3974 214.1672,-84.1799"/>
</g>
<!-- in_4 -->
<g id="node5" class="node">
<title>in_4</title>
<ellipse fill="none" stroke="#000000" cx="425" cy="-7" rx="7" ry="7"/>
</g>
<!-- in_4&#45;&gt;h_1_0 -->
<g id="edge41" class="edge">
<title>in_4&#45;&gt;h_1_0</title>
<path fill="none" stroke="#000000" d="M418.6953,-10.4182C395.6346,-22.921 315.2822,-66.4855 278.1204,-86.6335"/>
<polygon fill="#000000" stroke="#000000" points="275.9906,-83.8069 268.8677,-91.65 279.327,-89.9606 275.9906,-83.8069"/>
</g>
<!-- in_4&#45;&gt;h_1_1 -->
<g id="edge42" class="edge">
<title>in_4&#45;&gt;h_1_1</title>
<path fill="none" stroke="#000000" d="M419.6996,-11.5868C404.6585,-24.6032 361.2525,-62.1661 337.3198,-82.8771"/>
<polygon fill="#000000" stroke="#000000" points="334.7435,-80.4779 329.4722,-89.6683 339.3242,-85.7711 334.7435,-80.4779"/>
</g>
<!-- in_4&#45;&gt;h_1_2 -->
<g id="edge43" class="edge">
<title>in_4&#45;&gt;h_1_2</title>
<path fill="none" stroke="#000000" d="M421.9795,-13.4726C415.8007,-26.7128 401.5045,-57.3474 392.0508,-77.6055"/>
<polygon fill="#000000" stroke="#000000" points="388.7936,-76.3088 387.7363,-86.8508 395.1368,-79.2691 388.7936,-76.3088"/>
</g>
<!-- in_4&#45;&gt;h_1_3 -->
<g id="edge44" class="edge">
<title>in_4&#45;&gt;h_1_3</title>
<path fill="none" stroke="#000000" d="M426.5694,-14.0621C429.5063,-27.2785 435.936,-56.2121 440.3674,-76.1532"/>
<polygon fill="#000000" stroke="#000000" points="437.0027,-77.1469 442.5888,-86.1495 443.8361,-75.6283 437.0027,-77.1469"/>
</g>
<!-- in_4&#45;&gt;h_1_4 -->
<g id="edge45" class="edge">
<title>in_4&#45;&gt;h_1_4</title>
<path fill="none" stroke="#000000" d="M429.8839,-12.3604C442.0053,-25.6644 473.8394,-60.6042 492.5998,-81.1949"/>
<polygon fill="#000000" stroke="#000000" points="490.2018,-83.7597 499.5239,-88.7945 495.3761,-79.0453 490.2018,-83.7597"/>
</g>
<!-- in_4&#45;&gt;h_1_5 -->
<g id="edge46" class="edge">
<title>in_4&#45;&gt;h_1_5</title>
<path fill="none" stroke="#000000" d="M431.1875,-10.8672C451.766,-23.7288 518.437,-65.3981 550.903,-85.6894"/>
<polygon fill="#000000" stroke="#000000" points="549.1052,-88.6931 559.4402,-91.0251 552.8153,-82.7571 549.1052,-88.6931"/>
</g>
<!-- in_4&#45;&gt;h_1_6 -->
<g id="edge47" class="edge">
<title>in_4&#45;&gt;h_1_6</title>
<path fill="none" stroke="#000000" d="M418.1597,-8.487C372.266,-18.4639 108.6549,-75.7707 31.9395,-92.4479"/>
<polygon fill="#000000" stroke="#000000" points="31.0534,-89.0587 22.0251,-94.6032 32.5404,-95.899 31.0534,-89.0587"/>
</g>
<!-- in_4&#45;&gt;h_1_7 -->
<g id="edge48" class="edge">
<title>in_4&#45;&gt;h_1_7</title>
<path fill="none" stroke="#000000" d="M417.9687,-8.7978C376.3894,-19.4288 162.1913,-74.1954 93.9272,-91.6493"/>
<polygon fill="#000000" stroke="#000000" points="92.7595,-88.3352 83.9381,-94.2033 94.4935,-95.117 92.7595,-88.3352"/>
</g>
<!-- in_4&#45;&gt;h_1_8 -->
<g id="edge49" class="edge">
<title>in_4&#45;&gt;h_1_8</title>
<path fill="none" stroke="#000000" d="M418.1175,-9.136C382.0233,-20.3376 214.0126,-72.4789 155.3094,-90.6971"/>
<polygon fill="#000000" stroke="#000000" points="154.1899,-87.3798 145.6767,-93.6865 156.2648,-94.0652 154.1899,-87.3798"/>
</g>
<!-- in_4&#45;&gt;h_1_9 -->
<g id="edge50" class="edge">
<title>in_4&#45;&gt;h_1_9</title>
<path fill="none" stroke="#000000" d="M418.4223,-9.5965C388.5604,-21.384 265.1178,-70.1114 216.6554,-89.2413"/>
<polygon fill="#000000" stroke="#000000" points="215.2817,-86.0207 207.2653,-92.9479 217.8519,-92.5317 215.2817,-86.0207"/>
</g>
<!-- in_5 -->
<g id="node6" class="node">
<title>in_5</title>
<ellipse fill="none" stroke="#000000" cx="479" cy="-7" rx="7" ry="7"/>
</g>
<!-- in_5&#45;&gt;h_1_0 -->
<g id="edge51" class="edge">
<title>in_5&#45;&gt;h_1_0</title>
<path fill="none" stroke="#000000" d="M472.1746,-9.7922C442.7089,-21.8463 325.7808,-69.6806 278.7465,-88.9219"/>
<polygon fill="#000000" stroke="#000000" points="277.2726,-85.7432 269.3423,-92.769 279.9231,-92.2221 277.2726,-85.7432"/>
</g>
<!-- in_5&#45;&gt;h_1_1 -->
<g id="edge52" class="edge">
<title>in_5&#45;&gt;h_1_1</title>
<path fill="none" stroke="#000000" d="M472.6105,-10.6396C450.2354,-23.3849 374.8637,-66.3181 339.5484,-86.4344"/>
<polygon fill="#000000" stroke="#000000" points="337.6841,-83.4684 330.7272,-91.4592 341.1488,-89.5508 337.6841,-83.4684"/>
</g>
<!-- in_5&#45;&gt;h_1_2 -->
<g id="edge53" class="edge">
<title>in_5&#45;&gt;h_1_2</title>
<path fill="none" stroke="#000000" d="M473.8386,-11.8388C459.8179,-24.9832 420.6031,-61.7471 398.556,-82.4162"/>
<polygon fill="#000000" stroke="#000000" points="395.9368,-80.0742 391.0352,-89.467 400.7244,-85.1809 395.9368,-80.0742"/>
</g>
<!-- in_5&#45;&gt;h_1_3 -->
<g id="edge54" class="edge">
<title>in_5&#45;&gt;h_1_3</title>
<path fill="none" stroke="#000000" d="M476.4445,-13.7646C471.4207,-27.0627 460.0876,-57.0622 452.4903,-77.1727"/>
<polygon fill="#000000" stroke="#000000" points="449.171,-76.0554 448.9111,-86.647 455.7193,-78.5292 449.171,-76.0554"/>
</g>
<!-- in_5&#45;&gt;h_1_4 -->
<g id="edge55" class="edge">
<title>in_5&#45;&gt;h_1_4</title>
<path fill="none" stroke="#000000" d="M481.1046,-13.7646C485.2012,-26.9324 494.3925,-56.4759 500.6467,-76.5787"/>
<polygon fill="#000000" stroke="#000000" points="497.3749,-77.8441 503.6876,-86.353 504.0589,-75.7646 497.3749,-77.8441"/>
</g>
<!-- in_5&#45;&gt;h_1_5 -->
<g id="edge56" class="edge">
<title>in_5&#45;&gt;h_1_5</title>
<path fill="none" stroke="#000000" d="M484.0967,-12.0967C497.3518,-25.3518 533.3038,-61.3038 553.9241,-81.9241"/>
<polygon fill="#000000" stroke="#000000" points="551.4511,-84.4008 560.997,-88.997 556.4008,-79.4511 551.4511,-84.4008"/>
</g>
<!-- in_5&#45;&gt;h_1_6 -->
<g id="edge57" class="edge">
<title>in_5&#45;&gt;h_1_6</title>
<path fill="none" stroke="#000000" d="M472.0211,-8.3421C421.7973,-18.0005 115.1211,-76.9767 31.8485,-92.9907"/>
<polygon fill="#000000" stroke="#000000" points="30.9873,-89.5921 21.8282,-94.9176 32.3093,-96.4661 30.9873,-89.5921"/>
</g>
<!-- in_5&#45;&gt;h_1_7 -->
<g id="edge58" class="edge">
<title>in_5&#45;&gt;h_1_7</title>
<path fill="none" stroke="#000000" d="M471.9531,-8.5621C426.0814,-18.7307 169.4474,-75.62 93.9155,-92.3636"/>
<polygon fill="#000000" stroke="#000000" points="92.7735,-89.0317 83.768,-94.613 94.2885,-95.8658 92.7735,-89.0317"/>
</g>
<!-- in_5&#45;&gt;h_1_8 -->
<g id="edge59" class="edge">
<title>in_5&#45;&gt;h_1_8</title>
<path fill="none" stroke="#000000" d="M472.1285,-8.7978C431.4942,-19.4288 222.1642,-74.1954 155.4516,-91.6493"/>
<polygon fill="#000000" stroke="#000000" points="154.478,-88.2861 145.6895,-94.2033 156.2498,-95.0582 154.478,-88.2861"/>
</g>
<!-- in_5&#45;&gt;h_1_9 -->
<g id="edge60" class="edge">
<title>in_5&#45;&gt;h_1_9</title>
<path fill="none" stroke="#000000" d="M472.3073,-9.136C437.3601,-20.2893 275.2379,-72.0305 217.4926,-90.4598"/>
<polygon fill="#000000" stroke="#000000" points="216.1528,-87.2134 207.6904,-93.5882 218.2811,-93.882 216.1528,-87.2134"/>
</g>
<!-- in_6 -->
<g id="node7" class="node">
<title>in_6</title>
<ellipse fill="none" stroke="#000000" cx="101" cy="-7" rx="7" ry="7"/>
</g>
<!-- in_6&#45;&gt;h_1_0 -->
<g id="edge61" class="edge">
<title>in_6&#45;&gt;h_1_0</title>
<path fill="none" stroke="#000000" d="M107.3895,-10.6396C129.7646,-23.3849 205.1363,-66.3181 240.4516,-86.4344"/>
<polygon fill="#000000" stroke="#000000" points="238.8512,-89.5508 249.2728,-91.4592 242.3159,-83.4684 238.8512,-89.5508"/>
</g>
<!-- in_6&#45;&gt;h_1_1 -->
<g id="edge62" class="edge">
<title>in_6&#45;&gt;h_1_1</title>
<path fill="none" stroke="#000000" d="M107.8254,-9.7922C137.2911,-21.8463 254.2192,-69.6806 301.2535,-88.9219"/>
<polygon fill="#000000" stroke="#000000" points="300.0769,-92.2221 310.6577,-92.769 302.7274,-85.7432 300.0769,-92.2221"/>
</g>
<!-- in_6&#45;&gt;h_1_2 -->
<g id="edge63" class="edge">
<title>in_6&#45;&gt;h_1_2</title>
<path fill="none" stroke="#000000" d="M107.6927,-9.136C142.6399,-20.2893 304.7621,-72.0305 362.5074,-90.4598"/>
<polygon fill="#000000" stroke="#000000" points="361.7189,-93.882 372.3096,-93.5882 363.8472,-87.2134 361.7189,-93.882"/>
</g>
<!-- in_6&#45;&gt;h_1_3 -->
<g id="edge64" class="edge">
<title>in_6&#45;&gt;h_1_3</title>
<path fill="none" stroke="#000000" d="M107.8715,-8.7978C148.5058,-19.4288 357.8358,-74.1954 424.5484,-91.6493"/>
<polygon fill="#000000" stroke="#000000" points="423.7502,-95.0582 434.3105,-94.2033 425.522,-88.2861 423.7502,-95.0582"/>
</g>
<!-- in_6&#45;&gt;h_1_4 -->
<g id="edge65" class="edge">
<title>in_6&#45;&gt;h_1_4</title>
<path fill="none" stroke="#000000" d="M108.0469,-8.5621C153.9186,-18.7307 410.5526,-75.62 486.0845,-92.3636"/>
<polygon fill="#000000" stroke="#000000" points="485.7115,-95.8658 496.232,-94.613 487.2265,-89.0317 485.7115,-95.8658"/>
</g>
<!-- in_6&#45;&gt;h_1_5 -->
<g id="edge66" class="edge">
<title>in_6&#45;&gt;h_1_5</title>
<path fill="none" stroke="#000000" d="M107.9789,-8.3421C158.2027,-18.0005 464.8789,-76.9767 548.1515,-92.9907"/>
<polygon fill="#000000" stroke="#000000" points="547.6907,-96.4661 558.1718,-94.9176 549.0127,-89.5921 547.6907,-96.4661"/>
</g>
<!-- in_6&#45;&gt;h_1_6 -->
<g id="edge67" class="edge">
<title>in_6&#45;&gt;h_1_6</title>
<path fill="none" stroke="#000000" d="M95.9033,-12.0967C82.6482,-25.3518 46.6962,-61.3038 26.0759,-81.9241"/>
<polygon fill="#000000" stroke="#000000" points="23.5992,-79.4511 19.003,-88.997 28.5489,-84.4008 23.5992,-79.4511"/>
</g>
<!-- in_6&#45;&gt;h_1_7 -->
<g id="edge68" class="edge">
<title>in_6&#45;&gt;h_1_7</title>
<path fill="none" stroke="#000000" d="M98.8954,-13.7646C94.7988,-26.9324 85.6075,-56.4759 79.3533,-76.5787"/>
<polygon fill="#000000" stroke="#000000" points="75.9411,-75.7646 76.3124,-86.353 82.6251,-77.8441 75.9411,-75.7646"/>
</g>
<!-- in_6&#45;&gt;h_1_8 -->
<g id="edge69" class="edge">
<title>in_6&#45;&gt;h_1_8</title>
<path fill="none" stroke="#000000" d="M103.5555,-13.7646C108.5793,-27.0627 119.9124,-57.0622 127.5097,-77.1727"/>
<polygon fill="#000000" stroke="#000000" points="124.2807,-78.5292 131.0889,-86.647 130.829,-76.0554 124.2807,-78.5292"/>
</g>
<!-- in_6&#45;&gt;h_1_9 -->
<g id="edge70" class="edge">
<title>in_6&#45;&gt;h_1_9</title>
<path fill="none" stroke="#000000" d="M106.1614,-11.8388C120.1821,-24.9832 159.3969,-61.7471 181.444,-82.4162"/>
<polygon fill="#000000" stroke="#000000" points="179.2756,-85.1809 188.9648,-89.467 184.0632,-80.0742 179.2756,-85.1809"/>
</g>
<!-- in_7 -->
<g id="node8" class="node">
<title>in_7</title>
<ellipse fill="none" stroke="#000000" cx="155" cy="-7" rx="7" ry="7"/>
</g>
<!-- in_7&#45;&gt;h_1_0 -->
<g id="edge71" class="edge">
<title>in_7&#45;&gt;h_1_0</title>
<path fill="none" stroke="#000000" d="M160.3004,-11.5868C175.3415,-24.6032 218.7475,-62.1661 242.6802,-82.8771"/>
<polygon fill="#000000" stroke="#000000" points="240.6758,-85.7711 250.5278,-89.6683 245.2565,-80.4779 240.6758,-85.7711"/>
</g>
<!-- in_7&#45;&gt;h_1_1 -->
<g id="edge72" class="edge">
<title>in_7&#45;&gt;h_1_1</title>
<path fill="none" stroke="#000000" d="M161.3047,-10.4182C184.3654,-22.921 264.7178,-66.4855 301.8796,-86.6335"/>
<polygon fill="#000000" stroke="#000000" points="300.673,-89.9606 311.1323,-91.65 304.0094,-83.8069 300.673,-89.9606"/>
</g>
<!-- in_7&#45;&gt;h_1_2 -->
<g id="edge73" class="edge">
<title>in_7&#45;&gt;h_1_2</title>
<path fill="none" stroke="#000000" d="M161.5777,-9.5965C191.4396,-21.384 314.8822,-70.1114 363.3446,-89.2413"/>
<polygon fill="#000000" stroke="#000000" points="362.1481,-92.5317 372.7347,-92.9479 364.7183,-86.0207 362.1481,-92.5317"/>
</g>
<!-- in_7&#45;&gt;h_1_3 -->
<g id="edge74" class="edge">
<title>in_7&#45;&gt;h_1_3</title>
<path fill="none" stroke="#000000" d="M161.8825,-9.136C197.9767,-20.3376 365.9874,-72.4789 424.6906,-90.6971"/>
<polygon fill="#000000" stroke="#000000" points="423.7352,-94.0652 434.3233,-93.6865 425.8101,-87.3798 423.7352,-94.0652"/>
</g>
<!-- in_7&#45;&gt;h_1_4 -->
<g id="edge75" class="edge">
<title>in_7&#45;&gt;h_1_4</title>
<path fill="none" stroke="#000000" d="M162.0313,-8.7978C203.6106,-19.4288 417.8087,-74.1954 486.0728,-91.6493"/>
<polygon fill="#000000" stroke="#000000" points="485.5065,-95.117 496.0619,-94.2033 487.2405,-88.3352 485.5065,-95.117"/>
</g>
<!-- in_7&#45;&gt;h_1_5 -->
<g id="edge76" class="edge">
<title>in_7&#45;&gt;h_1_5</title>
<path fill="none" stroke="#000000" d="M161.8403,-8.487C207.734,-18.4639 471.3451,-75.7707 548.0605,-92.4479"/>
<polygon fill="#000000" stroke="#000000" points="547.4596,-95.899 557.9749,-94.6032 548.9466,-89.0587 547.4596,-95.899"/>
</g>
<!-- in_7&#45;&gt;h_1_6 -->
<g id="edge77" class="edge">
<title>in_7&#45;&gt;h_1_6</title>
<path fill="none" stroke="#000000" d="M148.8125,-10.8672C128.234,-23.7288 61.563,-65.3981 29.097,-85.6894"/>
<polygon fill="#000000" stroke="#000000" points="27.1847,-82.7571 20.5598,-91.0251 30.8948,-88.6931 27.1847,-82.7571"/>
</g>
<!-- in_7&#45;&gt;h_1_7 -->
<g id="edge78" class="edge">
<title>in_7&#45;&gt;h_1_7</title>
<path fill="none" stroke="#000000" d="M150.1161,-12.3604C137.9947,-25.6644 106.1606,-60.6042 87.4002,-81.1949"/>
<polygon fill="#000000" stroke="#000000" points="84.6239,-79.0453 80.4761,-88.7945 89.7982,-83.7597 84.6239,-79.0453"/>
</g>
<!-- in_7&#45;&gt;h_1_8 -->
<g id="edge79" class="edge">
<title>in_7&#45;&gt;h_1_8</title>
<path fill="none" stroke="#000000" d="M153.4306,-14.0621C150.4937,-27.2785 144.064,-56.2121 139.6326,-76.1532"/>
<polygon fill="#000000" stroke="#000000" points="136.1639,-75.6283 137.4112,-86.1495 142.9973,-77.1469 136.1639,-75.6283"/>
</g>
<!-- in_7&#45;&gt;h_1_9 -->
<g id="edge80" class="edge">
<title>in_7&#45;&gt;h_1_9</title>
<path fill="none" stroke="#000000" d="M158.0205,-13.4726C164.1993,-26.7128 178.4955,-57.3474 187.9492,-77.6055"/>
<polygon fill="#000000" stroke="#000000" points="184.8632,-79.2691 192.2637,-86.8508 191.2064,-76.3088 184.8632,-79.2691"/>
</g>
<!-- h_2_0 -->
<g id="node19" class="node">
<title>h_2_0</title>
<ellipse fill="none" stroke="#000000" cx="135" cy="-191" rx="11" ry="11"/>
</g>
<!-- h_1_0&#45;&gt;h_2_0 -->
<g id="edge81" class="edge">
<title>h_1_0&#45;&gt;h_2_0</title>
<path fill="none" stroke="#000000" d="M250.0822,-103.7602C229.5269,-119.3425 178.5426,-157.9919 151.871,-178.2107"/>
<polygon fill="#000000" stroke="#000000" points="149.6917,-175.4707 143.837,-184.301 153.9204,-181.0491 149.6917,-175.4707"/>
</g>
<!-- h_2_1 -->
<g id="node20" class="node">
<title>h_2_1</title>
<ellipse fill="none" stroke="#000000" cx="197" cy="-191" rx="11" ry="11"/>
</g>
<!-- h_1_0&#45;&gt;h_2_1 -->
<g id="edge82" class="edge">
<title>h_1_0&#45;&gt;h_2_1</title>
<path fill="none" stroke="#000000" d="M252.8285,-106.3567C242.5692,-121.9113 221.8395,-153.3401 208.7299,-173.216"/>
<polygon fill="#000000" stroke="#000000" points="205.7308,-171.4063 203.1465,-181.6811 211.5742,-175.2605 205.7308,-171.4063"/>
</g>
<!-- h_2_2 -->
<g id="node21" class="node">
<title>h_2_2</title>
<ellipse fill="none" stroke="#000000" cx="259" cy="-191" rx="11" ry="11"/>
</g>
<!-- h_1_0&#45;&gt;h_2_2 -->
<g id="edge83" class="edge">
<title>h_1_0&#45;&gt;h_2_2</title>
<path fill="none" stroke="#000000" d="M259,-108.1522C259,-123.2752 259,-150.5895 259,-169.7073"/>
<polygon fill="#000000" stroke="#000000" points="255.5001,-169.8623 259,-179.8623 262.5001,-169.8624 255.5001,-169.8623"/>
</g>
<!-- h_2_3 -->
<g id="node22" class="node">
<title>h_2_3</title>
<ellipse fill="none" stroke="#000000" cx="321" cy="-191" rx="11" ry="11"/>
</g>
<!-- h_1_0&#45;&gt;h_2_3 -->
<g id="edge84" class="edge">
<title>h_1_0&#45;&gt;h_2_3</title>
<path fill="none" stroke="#000000" d="M265.1715,-106.3567C275.4308,-121.9113 296.1605,-153.3401 309.2701,-173.216"/>
<polygon fill="#000000" stroke="#000000" points="306.4258,-175.2605 314.8535,-181.6811 312.2692,-171.4063 306.4258,-175.2605"/>
</g>
<!-- h_2_4 -->
<g id="node23" class="node">
<title>h_2_4</title>
<ellipse fill="none" stroke="#000000" cx="383" cy="-191" rx="11" ry="11"/>
</g>
<!-- h_1_0&#45;&gt;h_2_4 -->
<g id="edge85" class="edge">
<title>h_1_0&#45;&gt;h_2_4</title>
<path fill="none" stroke="#000000" d="M267.9178,-103.7602C288.4731,-119.3425 339.4574,-157.9919 366.129,-178.2107"/>
<polygon fill="#000000" stroke="#000000" points="364.0796,-181.0491 374.163,-184.301 368.3083,-175.4707 364.0796,-181.0491"/>
</g>
<!-- h_2_5 -->
<g id="node24" class="node">
<title>h_2_5</title>
<ellipse fill="none" stroke="#000000" cx="445" cy="-191" rx="11" ry="11"/>
</g>
<!-- h_1_0&#45;&gt;h_2_5 -->
<g id="edge86" class="edge">
<title>h_1_0&#45;&gt;h_2_5</title>
<path fill="none" stroke="#000000" d="M269.0002,-102.0538C298.7097,-117.0683 386.8048,-161.5895 425.9199,-181.3574"/>
<polygon fill="#000000" stroke="#000000" points="424.4467,-184.5344 434.9504,-185.9212 427.6041,-178.2869 424.4467,-184.5344"/>
</g>
<!-- h_1_1&#45;&gt;h_2_0 -->
<g id="edge87" class="edge">
<title>h_1_1&#45;&gt;h_2_0</title>
<path fill="none" stroke="#000000" d="M310.9998,-102.0538C281.2903,-117.0683 193.1952,-161.5895 154.0801,-181.3574"/>
<polygon fill="#000000" stroke="#000000" points="152.3959,-178.2869 145.0496,-185.9212 155.5533,-184.5344 152.3959,-178.2869"/>
</g>
<!-- h_1_1&#45;&gt;h_2_1 -->
<g id="edge88" class="edge">
<title>h_1_1&#45;&gt;h_2_1</title>
<path fill="none" stroke="#000000" d="M312.0822,-103.7602C291.5269,-119.3425 240.5426,-157.9919 213.871,-178.2107"/>
<polygon fill="#000000" stroke="#000000" points="211.6917,-175.4707 205.837,-184.301 215.9204,-181.0491 211.6917,-175.4707"/>
</g>
<!-- h_1_1&#45;&gt;h_2_2 -->
<g id="edge89" class="edge">
<title>h_1_1&#45;&gt;h_2_2</title>
<path fill="none" stroke="#000000" d="M314.8285,-106.3567C304.5692,-121.9113 283.8395,-153.3401 270.7299,-173.216"/>
<polygon fill="#000000" stroke="#000000" points="267.7308,-171.4063 265.1465,-181.6811 273.5742,-175.2605 267.7308,-171.4063"/>
</g>
<!-- h_1_1&#45;&gt;h_2_3 -->
<g id="edge90" class="edge">
<title>h_1_1&#45;&gt;h_2_3</title>
<path fill="none" stroke="#000000" d="M321,-108.1522C321,-123.2752 321,-150.5895 321,-169.7073"/>
<polygon fill="#000000" stroke="#000000" points="317.5001,-169.8623 321,-179.8623 324.5001,-169.8624 317.5001,-169.8623"/>
</g>
<!-- h_1_1&#45;&gt;h_2_4 -->
<g id="edge91" class="edge">
<title>h_1_1&#45;&gt;h_2_4</title>
<path fill="none" stroke="#000000" d="M327.1715,-106.3567C337.4308,-121.9113 358.1605,-153.3401 371.2701,-173.216"/>
<polygon fill="#000000" stroke="#000000" points="368.4258,-175.2605 376.8535,-181.6811 374.2692,-171.4063 368.4258,-175.2605"/>
</g>
<!-- h_1_1&#45;&gt;h_2_5 -->
<g id="edge92" class="edge">
<title>h_1_1&#45;&gt;h_2_5</title>
<path fill="none" stroke="#000000" d="M329.9178,-103.7602C350.4731,-119.3425 401.4574,-157.9919 428.129,-178.2107"/>
<polygon fill="#000000" stroke="#000000" points="426.0796,-181.0491 436.163,-184.301 430.3083,-175.4707 426.0796,-181.0491"/>
</g>
<!-- h_1_2&#45;&gt;h_2_0 -->
<g id="edge93" class="edge">
<title>h_1_2&#45;&gt;h_2_0</title>
<path fill="none" stroke="#000000" d="M372.6595,-100.9194C335.0025,-115.1926 204.7898,-164.5474 154.7773,-183.5038"/>
<polygon fill="#000000" stroke="#000000" points="153.495,-180.2468 145.3847,-187.0639 155.976,-186.7923 153.495,-180.2468"/>
</g>
<!-- h_1_2&#45;&gt;h_2_1 -->
<g id="edge94" class="edge">
<title>h_1_2&#45;&gt;h_2_1</title>
<path fill="none" stroke="#000000" d="M372.9998,-102.0538C343.2903,-117.0683 255.1952,-161.5895 216.0801,-181.3574"/>
<polygon fill="#000000" stroke="#000000" points="214.3959,-178.2869 207.0496,-185.9212 217.5533,-184.5344 214.3959,-178.2869"/>
</g>
<!-- h_1_2&#45;&gt;h_2_2 -->
<g id="edge95" class="edge">
<title>h_1_2&#45;&gt;h_2_2</title>
<path fill="none" stroke="#000000" d="M374.0822,-103.7602C353.5269,-119.3425 302.5426,-157.9919 275.871,-178.2107"/>
<polygon fill="#000000" stroke="#000000" points="273.6917,-175.4707 267.837,-184.301 277.9204,-181.0491 273.6917,-175.4707"/>
</g>
<!-- h_1_2&#45;&gt;h_2_3 -->
<g id="edge96" class="edge">
<title>h_1_2&#45;&gt;h_2_3</title>
<path fill="none" stroke="#000000" d="M376.8285,-106.3567C366.5692,-121.9113 345.8395,-153.3401 332.7299,-173.216"/>
<polygon fill="#000000" stroke="#000000" points="329.7308,-171.4063 327.1465,-181.6811 335.5742,-175.2605 329.7308,-171.4063"/>
</g>
<!-- h_1_2&#45;&gt;h_2_4 -->
<g id="edge97" class="edge">
<title>h_1_2&#45;&gt;h_2_4</title>
<path fill="none" stroke="#000000" d="M383,-108.1522C383,-123.2752 383,-150.5895 383,-169.7073"/>
<polygon fill="#000000" stroke="#000000" points="379.5001,-169.8623 383,-179.8623 386.5001,-169.8624 379.5001,-169.8623"/>
</g>
<!-- h_1_2&#45;&gt;h_2_5 -->
<g id="edge98" class="edge">
<title>h_1_2&#45;&gt;h_2_5</title>
<path fill="none" stroke="#000000" d="M389.1715,-106.3567C399.4308,-121.9113 420.1605,-153.3401 433.2701,-173.216"/>
<polygon fill="#000000" stroke="#000000" points="430.4258,-175.2605 438.8535,-181.6811 436.2692,-171.4063 430.4258,-175.2605"/>
</g>
<!-- h_1_3&#45;&gt;h_2_0 -->
<g id="edge99" class="edge">
<title>h_1_3&#45;&gt;h_2_0</title>
<path fill="none" stroke="#000000" d="M434.3291,-100.2357C389.4272,-113.8511 215.3951,-166.6221 155.4371,-184.8029"/>
<polygon fill="#000000" stroke="#000000" points="154.1801,-181.5267 145.626,-187.7779 156.2114,-188.2255 154.1801,-181.5267"/>
</g>
<!-- h_1_3&#45;&gt;h_2_1 -->
<g id="edge100" class="edge">
<title>h_1_3&#45;&gt;h_2_1</title>
<path fill="none" stroke="#000000" d="M434.6595,-100.9194C397.0025,-115.1926 266.7898,-164.5474 216.7773,-183.5038"/>
<polygon fill="#000000" stroke="#000000" points="215.495,-180.2468 207.3847,-187.0639 217.976,-186.7923 215.495,-180.2468"/>
</g>
<!-- h_1_3&#45;&gt;h_2_2 -->
<g id="edge101" class="edge">
<title>h_1_3&#45;&gt;h_2_2</title>
<path fill="none" stroke="#000000" d="M434.9998,-102.0538C405.2903,-117.0683 317.1952,-161.5895 278.0801,-181.3574"/>
<polygon fill="#000000" stroke="#000000" points="276.3959,-178.2869 269.0496,-185.9212 279.5533,-184.5344 276.3959,-178.2869"/>
</g>
<!-- h_1_3&#45;&gt;h_2_3 -->
<g id="edge102" class="edge">
<title>h_1_3&#45;&gt;h_2_3</title>
<path fill="none" stroke="#000000" d="M436.0822,-103.7602C415.5269,-119.3425 364.5426,-157.9919 337.871,-178.2107"/>
<polygon fill="#000000" stroke="#000000" points="335.6917,-175.4707 329.837,-184.301 339.9204,-181.0491 335.6917,-175.4707"/>
</g>
<!-- h_1_3&#45;&gt;h_2_4 -->
<g id="edge103" class="edge">
<title>h_1_3&#45;&gt;h_2_4</title>
<path fill="none" stroke="#000000" d="M438.8285,-106.3567C428.5692,-121.9113 407.8395,-153.3401 394.7299,-173.216"/>
<polygon fill="#000000" stroke="#000000" points="391.7308,-171.4063 389.1465,-181.6811 397.5742,-175.2605 391.7308,-171.4063"/>
</g>
<!-- h_1_3&#45;&gt;h_2_5 -->
<g id="edge104" class="edge">
<title>h_1_3&#45;&gt;h_2_5</title>
<path fill="none" stroke="#000000" d="M445,-108.1522C445,-123.2752 445,-150.5895 445,-169.7073"/>
<polygon fill="#000000" stroke="#000000" points="441.5001,-169.8623 445,-179.8623 448.5001,-169.8624 441.5001,-169.8623"/>
</g>
<!-- h_1_4&#45;&gt;h_2_0 -->
<g id="edge105" class="edge">
<title>h_1_4&#45;&gt;h_2_0</title>
<path fill="none" stroke="#000000" d="M496.2679,-99.7119C445.0361,-112.6575 224.9842,-168.2621 155.8614,-185.7286"/>
<polygon fill="#000000" stroke="#000000" points="154.6134,-182.4338 145.7756,-188.2771 156.3283,-189.2205 154.6134,-182.4338"/>
</g>
<!-- h_1_4&#45;&gt;h_2_1 -->
<g id="edge106" class="edge">
<title>h_1_4&#45;&gt;h_2_1</title>
<path fill="none" stroke="#000000" d="M496.3291,-100.2357C451.4272,-113.8511 277.3951,-166.6221 217.4371,-184.8029"/>
<polygon fill="#000000" stroke="#000000" points="216.1801,-181.5267 207.626,-187.7779 218.2114,-188.2255 216.1801,-181.5267"/>
</g>
<!-- h_1_4&#45;&gt;h_2_2 -->
<g id="edge107" class="edge">
<title>h_1_4&#45;&gt;h_2_2</title>
<path fill="none" stroke="#000000" d="M496.6595,-100.9194C459.0025,-115.1926 328.7898,-164.5474 278.7773,-183.5038"/>
<polygon fill="#000000" stroke="#000000" points="277.495,-180.2468 269.3847,-187.0639 279.976,-186.7923 277.495,-180.2468"/>
</g>
<!-- h_1_4&#45;&gt;h_2_3 -->
<g id="edge108" class="edge">
<title>h_1_4&#45;&gt;h_2_3</title>
<path fill="none" stroke="#000000" d="M496.9998,-102.0538C467.2903,-117.0683 379.1952,-161.5895 340.0801,-181.3574"/>
<polygon fill="#000000" stroke="#000000" points="338.3959,-178.2869 331.0496,-185.9212 341.5533,-184.5344 338.3959,-178.2869"/>
</g>
<!-- h_1_4&#45;&gt;h_2_4 -->
<g id="edge109" class="edge">
<title>h_1_4&#45;&gt;h_2_4</title>
<path fill="none" stroke="#000000" d="M498.0822,-103.7602C477.5269,-119.3425 426.5426,-157.9919 399.871,-178.2107"/>
<polygon fill="#000000" stroke="#000000" points="397.6917,-175.4707 391.837,-184.301 401.9204,-181.0491 397.6917,-175.4707"/>
</g>
<!-- h_1_4&#45;&gt;h_2_5 -->
<g id="edge110" class="edge">
<title>h_1_4&#45;&gt;h_2_5</title>
<path fill="none" stroke="#000000" d="M500.8285,-106.3567C490.5692,-121.9113 469.8395,-153.3401 456.7299,-173.216"/>
<polygon fill="#000000" stroke="#000000" points="453.7308,-171.4063 451.1465,-181.6811 459.5742,-175.2605 453.7308,-171.4063"/>
</g>
<!-- h_1_5&#45;&gt;h_2_0 -->
<g id="edge111" class="edge">
<title>h_1_5&#45;&gt;h_2_0</title>
<path fill="none" stroke="#000000" d="M557.8357,-99.4181C499.9178,-111.9625 233.3908,-169.6895 156.0771,-186.4349"/>
<polygon fill="#000000" stroke="#000000" points="155.1229,-183.0603 146.0905,-188.5979 156.6048,-189.9017 155.1229,-183.0603"/>
</g>
<!-- h_1_5&#45;&gt;h_2_1 -->
<g id="edge112" class="edge">
<title>h_1_5&#45;&gt;h_2_1</title>
<path fill="none" stroke="#000000" d="M558.2679,-99.7119C507.0361,-112.6575 286.9842,-168.2621 217.8614,-185.7286"/>
<polygon fill="#000000" stroke="#000000" points="216.6134,-182.4338 207.7756,-188.2771 218.3283,-189.2205 216.6134,-182.4338"/>
</g>
<!-- h_1_5&#45;&gt;h_2_2 -->
<g id="edge113" class="edge">
<title>h_1_5&#45;&gt;h_2_2</title>
<path fill="none" stroke="#000000" d="M558.3291,-100.2357C513.4272,-113.8511 339.3951,-166.6221 279.4371,-184.8029"/>
<polygon fill="#000000" stroke="#000000" points="278.1801,-181.5267 269.626,-187.7779 280.2114,-188.2255 278.1801,-181.5267"/>
</g>
<!-- h_1_5&#45;&gt;h_2_3 -->
<g id="edge114" class="edge">
<title>h_1_5&#45;&gt;h_2_3</title>
<path fill="none" stroke="#000000" d="M558.6595,-100.9194C521.0025,-115.1926 390.7898,-164.5474 340.7773,-183.5038"/>
<polygon fill="#000000" stroke="#000000" points="339.495,-180.2468 331.3847,-187.0639 341.976,-186.7923 339.495,-180.2468"/>
</g>
<!-- h_1_5&#45;&gt;h_2_4 -->
<g id="edge115" class="edge">
<title>h_1_5&#45;&gt;h_2_4</title>
<path fill="none" stroke="#000000" d="M558.9998,-102.0538C529.2903,-117.0683 441.1952,-161.5895 402.0801,-181.3574"/>
<polygon fill="#000000" stroke="#000000" points="400.3959,-178.2869 393.0496,-185.9212 403.5533,-184.5344 400.3959,-178.2869"/>
</g>
<!-- h_1_5&#45;&gt;h_2_5 -->
<g id="edge116" class="edge">
<title>h_1_5&#45;&gt;h_2_5</title>
<path fill="none" stroke="#000000" d="M560.0822,-103.7602C539.5269,-119.3425 488.5426,-157.9919 461.871,-178.2107"/>
<polygon fill="#000000" stroke="#000000" points="459.6917,-175.4707 453.837,-184.301 463.9204,-181.0491 459.6917,-175.4707"/>
</g>
<!-- h_1_6&#45;&gt;h_2_0 -->
<g id="edge117" class="edge">
<title>h_1_6&#45;&gt;h_2_0</title>
<path fill="none" stroke="#000000" d="M19.9178,-103.7602C40.4731,-119.3425 91.4574,-157.9919 118.129,-178.2107"/>
<polygon fill="#000000" stroke="#000000" points="116.0796,-181.0491 126.163,-184.301 120.3083,-175.4707 116.0796,-181.0491"/>
</g>
<!-- h_1_6&#45;&gt;h_2_1 -->
<g id="edge118" class="edge">
<title>h_1_6&#45;&gt;h_2_1</title>
<path fill="none" stroke="#000000" d="M21.0002,-102.0538C50.7097,-117.0683 138.8048,-161.5895 177.9199,-181.3574"/>
<polygon fill="#000000" stroke="#000000" points="176.4467,-184.5344 186.9504,-185.9212 179.6041,-178.2869 176.4467,-184.5344"/>
</g>
<!-- h_1_6&#45;&gt;h_2_2 -->
<g id="edge119" class="edge">
<title>h_1_6&#45;&gt;h_2_2</title>
<path fill="none" stroke="#000000" d="M21.3405,-100.9194C58.9975,-115.1926 189.2102,-164.5474 239.2227,-183.5038"/>
<polygon fill="#000000" stroke="#000000" points="238.024,-186.7923 248.6153,-187.0639 240.505,-180.2468 238.024,-186.7923"/>
</g>
<!-- h_1_6&#45;&gt;h_2_3 -->
<g id="edge120" class="edge">
<title>h_1_6&#45;&gt;h_2_3</title>
<path fill="none" stroke="#000000" d="M21.6709,-100.2357C66.5728,-113.8511 240.6049,-166.6221 300.5629,-184.8029"/>
<polygon fill="#000000" stroke="#000000" points="299.7886,-188.2255 310.374,-187.7779 301.8199,-181.5267 299.7886,-188.2255"/>
</g>
<!-- h_1_6&#45;&gt;h_2_4 -->
<g id="edge121" class="edge">
<title>h_1_6&#45;&gt;h_2_4</title>
<path fill="none" stroke="#000000" d="M21.7321,-99.7119C72.9639,-112.6575 293.0158,-168.2621 362.1386,-185.7286"/>
<polygon fill="#000000" stroke="#000000" points="361.6717,-189.2205 372.2244,-188.2771 363.3866,-182.4338 361.6717,-189.2205"/>
</g>
<!-- h_1_6&#45;&gt;h_2_5 -->
<g id="edge122" class="edge">
<title>h_1_6&#45;&gt;h_2_5</title>
<path fill="none" stroke="#000000" d="M22.1643,-99.4181C80.0822,-111.9625 346.6092,-169.6895 423.9229,-186.4349"/>
<polygon fill="#000000" stroke="#000000" points="423.3952,-189.9017 433.9095,-188.5979 424.8771,-183.0603 423.3952,-189.9017"/>
</g>
<!-- h_1_7&#45;&gt;h_2_0 -->
<g id="edge123" class="edge">
<title>h_1_7&#45;&gt;h_2_0</title>
<path fill="none" stroke="#000000" d="M79.1715,-106.3567C89.4308,-121.9113 110.1605,-153.3401 123.2701,-173.216"/>
<polygon fill="#000000" stroke="#000000" points="120.4258,-175.2605 128.8535,-181.6811 126.2692,-171.4063 120.4258,-175.2605"/>
</g>
<!-- h_1_7&#45;&gt;h_2_1 -->
<g id="edge124" class="edge">
<title>h_1_7&#45;&gt;h_2_1</title>
<path fill="none" stroke="#000000" d="M81.9178,-103.7602C102.4731,-119.3425 153.4574,-157.9919 180.129,-178.2107"/>
<polygon fill="#000000" stroke="#000000" points="178.0796,-181.0491 188.163,-184.301 182.3083,-175.4707 178.0796,-181.0491"/>
</g>
<!-- h_1_7&#45;&gt;h_2_2 -->
<g id="edge125" class="edge">
<title>h_1_7&#45;&gt;h_2_2</title>
<path fill="none" stroke="#000000" d="M83.0002,-102.0538C112.7097,-117.0683 200.8048,-161.5895 239.9199,-181.3574"/>
<polygon fill="#000000" stroke="#000000" points="238.4467,-184.5344 248.9504,-185.9212 241.6041,-178.2869 238.4467,-184.5344"/>
</g>
<!-- h_1_7&#45;&gt;h_2_3 -->
<g id="edge126" class="edge">
<title>h_1_7&#45;&gt;h_2_3</title>
<path fill="none" stroke="#000000" d="M83.3405,-100.9194C120.9975,-115.1926 251.2102,-164.5474 301.2227,-183.5038"/>
<polygon fill="#000000" stroke="#000000" points="300.024,-186.7923 310.6153,-187.0639 302.505,-180.2468 300.024,-186.7923"/>
</g>
<!-- h_1_7&#45;&gt;h_2_4 -->
<g id="edge127" class="edge">
<title>h_1_7&#45;&gt;h_2_4</title>
<path fill="none" stroke="#000000" d="M83.6709,-100.2357C128.5728,-113.8511 302.6049,-166.6221 362.5629,-184.8029"/>
<polygon fill="#000000" stroke="#000000" points="361.7886,-188.2255 372.374,-187.7779 363.8199,-181.5267 361.7886,-188.2255"/>
</g>
<!-- h_1_7&#45;&gt;h_2_5 -->
<g id="edge128" class="edge">
<title>h_1_7&#45;&gt;h_2_5</title>
<path fill="none" stroke="#000000" d="M83.7321,-99.7119C134.9639,-112.6575 355.0158,-168.2621 424.1386,-185.7286"/>
<polygon fill="#000000" stroke="#000000" points="423.6717,-189.2205 434.2244,-188.2771 425.3866,-182.4338 423.6717,-189.2205"/>
</g>
<!-- h_1_8&#45;&gt;h_2_0 -->
<g id="edge129" class="edge">
<title>h_1_8&#45;&gt;h_2_0</title>
<path fill="none" stroke="#000000" d="M135,-108.1522C135,-123.2752 135,-150.5895 135,-169.7073"/>
<polygon fill="#000000" stroke="#000000" points="131.5001,-169.8623 135,-179.8623 138.5001,-169.8624 131.5001,-169.8623"/>
</g>
<!-- h_1_8&#45;&gt;h_2_1 -->
<g id="edge130" class="edge">
<title>h_1_8&#45;&gt;h_2_1</title>
<path fill="none" stroke="#000000" d="M141.1715,-106.3567C151.4308,-121.9113 172.1605,-153.3401 185.2701,-173.216"/>
<polygon fill="#000000" stroke="#000000" points="182.4258,-175.2605 190.8535,-181.6811 188.2692,-171.4063 182.4258,-175.2605"/>
</g>
<!-- h_1_8&#45;&gt;h_2_2 -->
<g id="edge131" class="edge">
<title>h_1_8&#45;&gt;h_2_2</title>
<path fill="none" stroke="#000000" d="M143.9178,-103.7602C164.4731,-119.3425 215.4574,-157.9919 242.129,-178.2107"/>
<polygon fill="#000000" stroke="#000000" points="240.0796,-181.0491 250.163,-184.301 244.3083,-175.4707 240.0796,-181.0491"/>
</g>
<!-- h_1_8&#45;&gt;h_2_3 -->
<g id="edge132" class="edge">
<title>h_1_8&#45;&gt;h_2_3</title>
<path fill="none" stroke="#000000" d="M145.0002,-102.0538C174.7097,-117.0683 262.8048,-161.5895 301.9199,-181.3574"/>
<polygon fill="#000000" stroke="#000000" points="300.4467,-184.5344 310.9504,-185.9212 303.6041,-178.2869 300.4467,-184.5344"/>
</g>
<!-- h_1_8&#45;&gt;h_2_4 -->
<g id="edge133" class="edge">
<title>h_1_8&#45;&gt;h_2_4</title>
<path fill="none" stroke="#000000" d="M145.3405,-100.9194C182.9975,-115.1926 313.2102,-164.5474 363.2227,-183.5038"/>
<polygon fill="#000000" stroke="#000000" points="362.024,-186.7923 372.6153,-187.0639 364.505,-180.2468 362.024,-186.7923"/>
</g>
<!-- h_1_8&#45;&gt;h_2_5 -->
<g id="edge134" class="edge">
<title>h_1_8&#45;&gt;h_2_5</title>
<path fill="none" stroke="#000000" d="M145.6709,-100.2357C190.5728,-113.8511 364.6049,-166.6221 424.5629,-184.8029"/>
<polygon fill="#000000" stroke="#000000" points="423.7886,-188.2255 434.374,-187.7779 425.8199,-181.5267 423.7886,-188.2255"/>
</g>
<!-- h_1_9&#45;&gt;h_2_0 -->
<g id="edge135" class="edge">
<title>h_1_9&#45;&gt;h_2_0</title>
<path fill="none" stroke="#000000" d="M190.8285,-106.3567C180.5692,-121.9113 159.8395,-153.3401 146.7299,-173.216"/>
<polygon fill="#000000" stroke="#000000" points="143.7308,-171.4063 141.1465,-181.6811 149.5742,-175.2605 143.7308,-171.4063"/>
</g>
<!-- h_1_9&#45;&gt;h_2_1 -->
<g id="edge136" class="edge">
<title>h_1_9&#45;&gt;h_2_1</title>
<path fill="none" stroke="#000000" d="M197,-108.1522C197,-123.2752 197,-150.5895 197,-169.7073"/>
<polygon fill="#000000" stroke="#000000" points="193.5001,-169.8623 197,-179.8623 200.5001,-169.8624 193.5001,-169.8623"/>
</g>
<!-- h_1_9&#45;&gt;h_2_2 -->
<g id="edge137" class="edge">
<title>h_1_9&#45;&gt;h_2_2</title>
<path fill="none" stroke="#000000" d="M203.1715,-106.3567C213.4308,-121.9113 234.1605,-153.3401 247.2701,-173.216"/>
<polygon fill="#000000" stroke="#000000" points="244.4258,-175.2605 252.8535,-181.6811 250.2692,-171.4063 244.4258,-175.2605"/>
</g>
<!-- h_1_9&#45;&gt;h_2_3 -->
<g id="edge138" class="edge">
<title>h_1_9&#45;&gt;h_2_3</title>
<path fill="none" stroke="#000000" d="M205.9178,-103.7602C226.4731,-119.3425 277.4574,-157.9919 304.129,-178.2107"/>
<polygon fill="#000000" stroke="#000000" points="302.0796,-181.0491 312.163,-184.301 306.3083,-175.4707 302.0796,-181.0491"/>
</g>
<!-- h_1_9&#45;&gt;h_2_4 -->
<g id="edge139" class="edge">
<title>h_1_9&#45;&gt;h_2_4</title>
<path fill="none" stroke="#000000" d="M207.0002,-102.0538C236.7097,-117.0683 324.8048,-161.5895 363.9199,-181.3574"/>
<polygon fill="#000000" stroke="#000000" points="362.4467,-184.5344 372.9504,-185.9212 365.6041,-178.2869 362.4467,-184.5344"/>
</g>
<!-- h_1_9&#45;&gt;h_2_5 -->
<g id="edge140" class="edge">
<title>h_1_9&#45;&gt;h_2_5</title>
<path fill="none" stroke="#000000" d="M207.3405,-100.9194C244.9975,-115.1926 375.2102,-164.5474 425.2227,-183.5038"/>
<polygon fill="#000000" stroke="#000000" points="424.024,-186.7923 434.6153,-187.0639 426.505,-180.2468 424.024,-186.7923"/>
</g>
<!-- o_0 -->
<g id="node25" class="node">
<title>o_0</title>
<ellipse fill="none" stroke="#000000" cx="197" cy="-285" rx="11" ry="11"/>
</g>
<!-- h_2_0&#45;&gt;o_0 -->
<g id="edge141" class="edge">
<title>h_2_0&#45;&gt;o_0</title>
<path fill="none" stroke="#000000" d="M141.1715,-200.3567C151.4308,-215.9113 172.1605,-247.3401 185.2701,-267.216"/>
<polygon fill="#000000" stroke="#000000" points="182.4258,-269.2605 190.8535,-275.6811 188.2692,-265.4063 182.4258,-269.2605"/>
</g>
<!-- o_1 -->
<g id="node26" class="node">
<title>o_1</title>
<ellipse fill="none" stroke="#000000" cx="259" cy="-285" rx="11" ry="11"/>
</g>
<!-- h_2_0&#45;&gt;o_1 -->
<g id="edge142" class="edge">
<title>h_2_0&#45;&gt;o_1</title>
<path fill="none" stroke="#000000" d="M143.9178,-197.7602C164.4731,-213.3425 215.4574,-251.9919 242.129,-272.2107"/>
<polygon fill="#000000" stroke="#000000" points="240.0796,-275.0491 250.163,-278.301 244.3083,-269.4707 240.0796,-275.0491"/>
</g>
<!-- o_2 -->
<g id="node27" class="node">
<title>o_2</title>
<ellipse fill="none" stroke="#000000" cx="321" cy="-285" rx="11" ry="11"/>
</g>
<!-- h_2_0&#45;&gt;o_2 -->
<g id="edge143" class="edge">
<title>h_2_0&#45;&gt;o_2</title>
<path fill="none" stroke="#000000" d="M145.0002,-196.0538C174.7097,-211.0683 262.8048,-255.5895 301.9199,-275.3574"/>
<polygon fill="#000000" stroke="#000000" points="300.4467,-278.5344 310.9504,-279.9212 303.6041,-272.2869 300.4467,-278.5344"/>
</g>
<!-- o_3 -->
<g id="node28" class="node">
<title>o_3</title>
<ellipse fill="none" stroke="#000000" cx="383" cy="-285" rx="11" ry="11"/>
</g>
<!-- h_2_0&#45;&gt;o_3 -->
<g id="edge144" class="edge">
<title>h_2_0&#45;&gt;o_3</title>
<path fill="none" stroke="#000000" d="M145.3405,-194.9194C182.9975,-209.1926 313.2102,-258.5474 363.2227,-277.5038"/>
<polygon fill="#000000" stroke="#000000" points="362.024,-280.7923 372.6153,-281.0639 364.505,-274.2468 362.024,-280.7923"/>
</g>
<!-- h_2_1&#45;&gt;o_0 -->
<g id="edge145" class="edge">
<title>h_2_1&#45;&gt;o_0</title>
<path fill="none" stroke="#000000" d="M197,-202.1522C197,-217.2752 197,-244.5895 197,-263.7073"/>
<polygon fill="#000000" stroke="#000000" points="193.5001,-263.8623 197,-273.8623 200.5001,-263.8624 193.5001,-263.8623"/>
</g>
<!-- h_2_1&#45;&gt;o_1 -->
<g id="edge146" class="edge">
<title>h_2_1&#45;&gt;o_1</title>
<path fill="none" stroke="#000000" d="M203.1715,-200.3567C213.4308,-215.9113 234.1605,-247.3401 247.2701,-267.216"/>
<polygon fill="#000000" stroke="#000000" points="244.4258,-269.2605 252.8535,-275.6811 250.2692,-265.4063 244.4258,-269.2605"/>
</g>
<!-- h_2_1&#45;&gt;o_2 -->
<g id="edge147" class="edge">
<title>h_2_1&#45;&gt;o_2</title>
<path fill="none" stroke="#000000" d="M205.9178,-197.7602C226.4731,-213.3425 277.4574,-251.9919 304.129,-272.2107"/>
<polygon fill="#000000" stroke="#000000" points="302.0796,-275.0491 312.163,-278.301 306.3083,-269.4707 302.0796,-275.0491"/>
</g>
<!-- h_2_1&#45;&gt;o_3 -->
<g id="edge148" class="edge">
<title>h_2_1&#45;&gt;o_3</title>
<path fill="none" stroke="#000000" d="M207.0002,-196.0538C236.7097,-211.0683 324.8048,-255.5895 363.9199,-275.3574"/>
<polygon fill="#000000" stroke="#000000" points="362.4467,-278.5344 372.9504,-279.9212 365.6041,-272.2869 362.4467,-278.5344"/>
</g>
<!-- h_2_2&#45;&gt;o_0 -->
<g id="edge149" class="edge">
<title>h_2_2&#45;&gt;o_0</title>
<path fill="none" stroke="#000000" d="M252.8285,-200.3567C242.5692,-215.9113 221.8395,-247.3401 208.7299,-267.216"/>
<polygon fill="#000000" stroke="#000000" points="205.7308,-265.4063 203.1465,-275.6811 211.5742,-269.2605 205.7308,-265.4063"/>
</g>
<!-- h_2_2&#45;&gt;o_1 -->
<g id="edge150" class="edge">
<title>h_2_2&#45;&gt;o_1</title>
<path fill="none" stroke="#000000" d="M259,-202.1522C259,-217.2752 259,-244.5895 259,-263.7073"/>
<polygon fill="#000000" stroke="#000000" points="255.5001,-263.8623 259,-273.8623 262.5001,-263.8624 255.5001,-263.8623"/>
</g>
<!-- h_2_2&#45;&gt;o_2 -->
<g id="edge151" class="edge">
<title>h_2_2&#45;&gt;o_2</title>
<path fill="none" stroke="#000000" d="M265.1715,-200.3567C275.4308,-215.9113 296.1605,-247.3401 309.2701,-267.216"/>
<polygon fill="#000000" stroke="#000000" points="306.4258,-269.2605 314.8535,-275.6811 312.2692,-265.4063 306.4258,-269.2605"/>
</g>
<!-- h_2_2&#45;&gt;o_3 -->
<g id="edge152" class="edge">
<title>h_2_2&#45;&gt;o_3</title>
<path fill="none" stroke="#000000" d="M267.9178,-197.7602C288.4731,-213.3425 339.4574,-251.9919 366.129,-272.2107"/>
<polygon fill="#000000" stroke="#000000" points="364.0796,-275.0491 374.163,-278.301 368.3083,-269.4707 364.0796,-275.0491"/>
</g>
<!-- h_2_3&#45;&gt;o_0 -->
<g id="edge153" class="edge">
<title>h_2_3&#45;&gt;o_0</title>
<path fill="none" stroke="#000000" d="M312.0822,-197.7602C291.5269,-213.3425 240.5426,-251.9919 213.871,-272.2107"/>
<polygon fill="#000000" stroke="#000000" points="211.6917,-269.4707 205.837,-278.301 215.9204,-275.0491 211.6917,-269.4707"/>
</g>
<!-- h_2_3&#45;&gt;o_1 -->
<g id="edge154" class="edge">
<title>h_2_3&#45;&gt;o_1</title>
<path fill="none" stroke="#000000" d="M314.8285,-200.3567C304.5692,-215.9113 283.8395,-247.3401 270.7299,-267.216"/>
<polygon fill="#000000" stroke="#000000" points="267.7308,-265.4063 265.1465,-275.6811 273.5742,-269.2605 267.7308,-265.4063"/>
</g>
<!-- h_2_3&#45;&gt;o_2 -->
<g id="edge155" class="edge">
<title>h_2_3&#45;&gt;o_2</title>
<path fill="none" stroke="#000000" d="M321,-202.1522C321,-217.2752 321,-244.5895 321,-263.7073"/>
<polygon fill="#000000" stroke="#000000" points="317.5001,-263.8623 321,-273.8623 324.5001,-263.8624 317.5001,-263.8623"/>
</g>
<!-- h_2_3&#45;&gt;o_3 -->
<g id="edge156" class="edge">
<title>h_2_3&#45;&gt;o_3</title>
<path fill="none" stroke="#000000" d="M327.1715,-200.3567C337.4308,-215.9113 358.1605,-247.3401 371.2701,-267.216"/>
<polygon fill="#000000" stroke="#000000" points="368.4258,-269.2605 376.8535,-275.6811 374.2692,-265.4063 368.4258,-269.2605"/>
</g>
<!-- h_2_4&#45;&gt;o_0 -->
<g id="edge157" class="edge">
<title>h_2_4&#45;&gt;o_0</title>
<path fill="none" stroke="#000000" d="M372.9998,-196.0538C343.2903,-211.0683 255.1952,-255.5895 216.0801,-275.3574"/>
<polygon fill="#000000" stroke="#000000" points="214.3959,-272.2869 207.0496,-279.9212 217.5533,-278.5344 214.3959,-272.2869"/>
</g>
<!-- h_2_4&#45;&gt;o_1 -->
<g id="edge158" class="edge">
<title>h_2_4&#45;&gt;o_1</title>
<path fill="none" stroke="#000000" d="M374.0822,-197.7602C353.5269,-213.3425 302.5426,-251.9919 275.871,-272.2107"/>
<polygon fill="#000000" stroke="#000000" points="273.6917,-269.4707 267.837,-278.301 277.9204,-275.0491 273.6917,-269.4707"/>
</g>
<!-- h_2_4&#45;&gt;o_2 -->
<g id="edge159" class="edge">
<title>h_2_4&#45;&gt;o_2</title>
<path fill="none" stroke="#000000" d="M376.8285,-200.3567C366.5692,-215.9113 345.8395,-247.3401 332.7299,-267.216"/>
<polygon fill="#000000" stroke="#000000" points="329.7308,-265.4063 327.1465,-275.6811 335.5742,-269.2605 329.7308,-265.4063"/>
</g>
<!-- h_2_4&#45;&gt;o_3 -->
<g id="edge160" class="edge">
<title>h_2_4&#45;&gt;o_3</title>
<path fill="none" stroke="#000000" d="M383,-202.1522C383,-217.2752 383,-244.5895 383,-263.7073"/>
<polygon fill="#000000" stroke="#000000" points="379.5001,-263.8623 383,-273.8623 386.5001,-263.8624 379.5001,-263.8623"/>
</g>
<!-- h_2_5&#45;&gt;o_0 -->
<g id="edge161" class="edge">
<title>h_2_5&#45;&gt;o_0</title>
<path fill="none" stroke="#000000" d="M434.6595,-194.9194C397.0025,-209.1926 266.7898,-258.5474 216.7773,-277.5038"/>
<polygon fill="#000000" stroke="#000000" points="215.495,-274.2468 207.3847,-281.0639 217.976,-280.7923 215.495,-274.2468"/>
</g>
<!-- h_2_5&#45;&gt;o_1 -->
<g id="edge162" class="edge">
<title>h_2_5&#45;&gt;o_1</title>
<path fill="none" stroke="#000000" d="M434.9998,-196.0538C405.2903,-211.0683 317.1952,-255.5895 278.0801,-275.3574"/>
<polygon fill="#000000" stroke="#000000" points="276.3959,-272.2869 269.0496,-279.9212 279.5533,-278.5344 276.3959,-272.2869"/>
</g>
<!-- h_2_5&#45;&gt;o_2 -->
<g id="edge163" class="edge">
<title>h_2_5&#45;&gt;o_2</title>
<path fill="none" stroke="#000000" d="M436.0822,-197.7602C415.5269,-213.3425 364.5426,-251.9919 337.871,-272.2107"/>
<polygon fill="#000000" stroke="#000000" points="335.6917,-269.4707 329.837,-278.301 339.9204,-275.0491 335.6917,-269.4707"/>
</g>
<!-- h_2_5&#45;&gt;o_3 -->
<g id="edge164" class="edge">
<title>h_2_5&#45;&gt;o_3</title>
<path fill="none" stroke="#000000" d="M438.8285,-200.3567C428.5692,-215.9113 407.8395,-247.3401 394.7299,-267.216"/>
<polygon fill="#000000" stroke="#000000" points="391.7308,-265.4063 389.1465,-275.6811 397.5742,-269.2605 391.7308,-265.4063"/>
</g>
<!-- e_0 -->
<g id="node29" class="node">
<title>e_0</title>
<ellipse fill="none" stroke="#000000" cx="197" cy="-371.5" rx="3.5" ry="3.5"/>
</g>
<!-- o_0&#45;&gt;e_0 -->
<g id="edge165" class="edge">
<title>o_0&#45;&gt;e_0</title>
<path fill="none" stroke="#000000" d="M197,-296.3084C197,-312.0803 197,-340.6566 197,-357.6745"/>
<polygon fill="#000000" stroke="#000000" points="193.5001,-357.6751 197,-367.6751 200.5001,-357.6751 193.5001,-357.6751"/>
</g>
<!-- e_1 -->
<g id="node30" class="node">
<title>e_1</title>
<ellipse fill="none" stroke="#000000" cx="259" cy="-371.5" rx="3.5" ry="3.5"/>
</g>
<!-- o_1&#45;&gt;e_1 -->
<g id="edge166" class="edge">
<title>o_1&#45;&gt;e_1</title>
<path fill="none" stroke="#000000" d="M259,-296.3084C259,-312.0803 259,-340.6566 259,-357.6745"/>
<polygon fill="#000000" stroke="#000000" points="255.5001,-357.6751 259,-367.6751 262.5001,-357.6751 255.5001,-357.6751"/>
</g>
<!-- e_2 -->
<g id="node31" class="node">
<title>e_2</title>
<ellipse fill="none" stroke="#000000" cx="321" cy="-371.5" rx="3.5" ry="3.5"/>
</g>
<!-- o_2&#45;&gt;e_2 -->
<g id="edge167" class="edge">
<title>o_2&#45;&gt;e_2</title>
<path fill="none" stroke="#000000" d="M321,-296.3084C321,-312.0803 321,-340.6566 321,-357.6745"/>
<polygon fill="#000000" stroke="#000000" points="317.5001,-357.6751 321,-367.6751 324.5001,-357.6751 317.5001,-357.6751"/>
</g>
<!-- e_3 -->
<g id="node32" class="node">
<title>e_3</title>
<ellipse fill="none" stroke="#000000" cx="383" cy="-371.5" rx="3.5" ry="3.5"/>
</g>
<!-- o_3&#45;&gt;e_3 -->
<g id="edge168" class="edge">
<title>o_3&#45;&gt;e_3</title>
<path fill="none" stroke="#000000" d="M383,-296.3084C383,-312.0803 383,-340.6566 383,-357.6745"/>
<polygon fill="#000000" stroke="#000000" points="379.5001,-357.6751 383,-367.6751 386.5001,-357.6751 379.5001,-357.6751"/>
</g>
</g>
</svg>
