<?xml version="1.0" encoding="UTF-8" standalone="no"?>
<!DOCTYPE svg PUBLIC "-//W3C//DTD SVG 1.1//EN"
 "http://www.w3.org/Graphics/SVG/1.1/DTD/svg11.dtd">
<!-- Generated by graphviz version 2.40.1 (20161225.0304)
 -->
<!-- Title: perceptron Pages: 1 -->
<svg width="400pt" height="195pt"
 viewBox="0.00 0.00 400.00 195.00" xmlns="http://www.w3.org/2000/svg" xmlns:xlink="http://www.w3.org/1999/xlink">
<g id="graph0" class="graph" transform="scale(1 1) rotate(0) translate(4 191)">
<title>perceptron</title>
<polygon fill="#ffffff" stroke="transparent" points="-4,4 -4,-191 396,-191 396,4 -4,4"/>
<!-- 0 -->
<g id="node1" class="node">
<title>0</title>
<ellipse fill="none" stroke="#000000" cx="7" cy="-7" rx="7" ry="7"/>
</g>
<!-- out -->
<g id="node9" class="node">
<title>out</title>
<ellipse fill="none" stroke="#000000" cx="196" cy="-97" rx="11" ry="11"/>
</g>
<!-- 0&#45;&gt;out -->
<g id="edge1" class="edge">
<title>0&#45;&gt;out</title>
<path fill="none" stroke="#000000" d="M13.7266,-10.2031C39.8489,-22.6423 135.1604,-68.0287 176.5722,-87.7487"/>
<polygon fill="#000000" stroke="#000000" points="175.1141,-90.9308 185.6475,-92.0702 178.1236,-84.6108 175.1141,-90.9308"/>
</g>
<!-- 1 -->
<g id="node2" class="node">
<title>1</title>
<ellipse fill="none" stroke="#000000" cx="61" cy="-7" rx="7" ry="7"/>
</g>
<!-- 1&#45;&gt;out -->
<g id="edge2" class="edge">
<title>1&#45;&gt;out</title>
<path fill="none" stroke="#000000" d="M67.1515,-11.101C86.6913,-24.1276 147.8497,-64.8998 178.3459,-85.2306"/>
<polygon fill="#000000" stroke="#000000" points="176.4838,-88.1957 186.7458,-90.8306 180.3668,-82.3713 176.4838,-88.1957"/>
</g>
<!-- 2 -->
<g id="node3" class="node">
<title>2</title>
<ellipse fill="none" stroke="#000000" cx="115" cy="-7" rx="7" ry="7"/>
</g>
<!-- 2&#45;&gt;out -->
<g id="edge3" class="edge">
<title>2&#45;&gt;out</title>
<path fill="none" stroke="#000000" d="M119.8243,-12.3604C131.7979,-25.6644 163.2438,-60.6042 181.7754,-81.1949"/>
<polygon fill="#000000" stroke="#000000" points="179.3238,-83.7029 188.6151,-88.7945 184.5269,-79.0202 179.3238,-83.7029"/>
</g>
<!-- 3 -->
<g id="node4" class="node">
<title>3</title>
<ellipse fill="none" stroke="#000000" cx="169" cy="-7" rx="7" ry="7"/>
</g>
<!-- 3&#45;&gt;out -->
<g id="edge4" class="edge">
<title>3&#45;&gt;out</title>
<path fill="none" stroke="#000000" d="M171.0294,-13.7646C174.9797,-26.9324 183.8428,-56.4759 189.8736,-76.5787"/>
<polygon fill="#000000" stroke="#000000" points="186.5799,-77.7804 192.8059,-86.353 193.2847,-75.7689 186.5799,-77.7804"/>
</g>
<!-- 4 -->
<g id="node5" class="node">
<title>4</title>
<ellipse fill="none" stroke="#000000" cx="223" cy="-7" rx="7" ry="7"/>
</g>
<!-- 4&#45;&gt;out -->
<g id="edge5" class="edge">
<title>4&#45;&gt;out</title>
<path fill="none" stroke="#000000" d="M220.9706,-13.7646C217.0203,-26.9324 208.1572,-56.4759 202.1264,-76.5787"/>
<polygon fill="#000000" stroke="#000000" points="198.7153,-75.7689 199.1941,-86.353 205.4201,-77.7804 198.7153,-75.7689"/>
</g>
<!-- 5 -->
<g id="node6" class="node">
<title>5</title>
<ellipse fill="none" stroke="#000000" cx="277" cy="-7" rx="7" ry="7"/>
</g>
<!-- 5&#45;&gt;out -->
<g id="edge6" class="edge">
<title>5&#45;&gt;out</title>
<path fill="none" stroke="#000000" d="M272.1757,-12.3604C260.2021,-25.6644 228.7562,-60.6042 210.2246,-81.1949"/>
<polygon fill="#000000" stroke="#000000" points="207.4731,-79.0202 203.3849,-88.7945 212.6762,-83.7029 207.4731,-79.0202"/>
</g>
<!-- 6 -->
<g id="node7" class="node">
<title>6</title>
<ellipse fill="none" stroke="#000000" cx="331" cy="-7" rx="7" ry="7"/>
</g>
<!-- 6&#45;&gt;out -->
<g id="edge7" class="edge">
<title>6&#45;&gt;out</title>
<path fill="none" stroke="#000000" d="M324.8485,-11.101C305.3087,-24.1276 244.1503,-64.8998 213.6541,-85.2306"/>
<polygon fill="#000000" stroke="#000000" points="211.6332,-82.3713 205.2542,-90.8306 215.5162,-88.1957 211.6332,-82.3713"/>
</g>
<!-- 7 -->
<g id="node8" class="node">
<title>7</title>
<ellipse fill="none" stroke="#000000" cx="385" cy="-7" rx="7" ry="7"/>
</g>
<!-- 7&#45;&gt;out -->
<g id="edge8" class="edge">
<title>7&#45;&gt;out</title>
<path fill="none" stroke="#000000" d="M378.2734,-10.2031C352.1511,-22.6423 256.8396,-68.0287 215.4278,-87.7487"/>
<polygon fill="#000000" stroke="#000000" points="213.8764,-84.6108 206.3525,-92.0702 216.8859,-90.9308 213.8764,-84.6108"/>
</g>
<!-- empty -->
<g id="node10" class="node">
<title>empty</title>
<ellipse fill="none" stroke="#000000" cx="196" cy="-183.5" rx="3.5" ry="3.5"/>
</g>
<!-- out&#45;&gt;empty -->
<g id="edge9" class="edge">
<title>out&#45;&gt;empty</title>
<path fill="none" stroke="#000000" d="M196,-108.3084C196,-124.0803 196,-152.6566 196,-169.6745"/>
<polygon fill="#000000" stroke="#000000" points="192.5001,-169.6751 196,-179.6751 199.5001,-169.6751 192.5001,-169.6751"/>
</g>
</g>
</svg>
